<?xml version="1.0" standalone="no"?>
<!DOCTYPE svg PUBLIC "-//W3C//DTD SVG 20010904//EN"
 "http://www.w3.org/TR/2001/REC-SVG-20010904/DTD/svg10.dtd">
<svg version="1.0" xmlns="http://www.w3.org/2000/svg"
 width="1280.000000pt" height="1276.000000pt" viewBox="0 0 1280.000000 1276.000000"
 preserveAspectRatio="xMidYMid meet">
<metadata>
Created by potrace 1.15, written by Peter Selinger 2001-2017
</metadata>
<g transform="translate(0.000000,1276.000000) scale(0.100000,-0.100000)"
fill="#000000" stroke="none">
<path d="M8480 12747 c-78 -18 -133 -49 -145 -81 -8 -23 -6 -30 10 -42 26 -19
165 -18 279 2 196 34 353 -40 317 -149 -26 -77 -108 -121 -332 -174 -125 -29
-175 -37 -261 -37 -97 -1 -109 1 -129 21 -32 32 -20 64 39 96 47 26 162 60
235 70 63 9 32 -10 -45 -28 -91 -21 -110 -31 -106 -58 7 -53 122 -42 282 28
122 53 151 90 105 136 -21 21 -28 22 -158 16 -229 -9 -381 -54 -450 -132 -31
-35 -33 -42 -29 -91 8 -92 75 -154 184 -169 130 -17 532 78 664 158 29 18 67
49 84 70 28 35 31 45 31 110 0 125 -53 190 -191 236 -85 28 -295 38 -384 18z
m266 -28 c161 -22 243 -73 270 -166 39 -133 -31 -206 -266 -281 -249 -79 -492
-104 -556 -56 -72 53 -91 129 -44 179 58 62 175 99 375 117 136 12 185 8 185
-17 0 -32 -184 -113 -274 -121 l-51 -4 65 19 c117 34 149 54 136 87 -13 35
-215 1 -332 -56 -77 -37 -108 -84 -84 -127 42 -75 162 -86 394 -34 185 41 270
69 325 105 58 40 81 73 88 126 11 78 -45 139 -150 167 -67 17 -124 17 -245 -3
-104 -16 -203 -16 -209 1 -6 18 56 47 130 60 92 17 146 18 243 4z"/>
<path d="M7513 12670 c-18 -11 -33 -24 -33 -29 0 -20 20 -21 46 -4 15 10 48
20 73 23 61 7 59 24 -4 28 -36 2 -59 -3 -82 -18z"/>
<path d="M3825 12645 c-40 -14 -125 -95 -125 -119 0 -8 -26 -12 -84 -11 -96 0
-126 -14 -160 -77 -17 -31 -27 -37 -64 -42 -112 -15 -172 -108 -127 -196 20
-39 82 -70 138 -70 33 0 60 -9 103 -35 111 -67 200 -80 304 -45 l60 20 68 -22
c50 -17 90 -23 158 -23 84 0 94 2 135 30 24 16 65 40 91 53 27 13 57 35 68 49
72 92 37 223 -78 290 -42 25 -56 28 -139 28 -92 0 -93 0 -98 26 -12 52 -63
119 -108 139 -50 23 -87 24 -142 5z m158 -57 c28 -28 52 -75 73 -147 3 -8 11
-10 22 -6 42 16 111 17 165 1 97 -28 147 -88 147 -177 0 -55 -31 -96 -96 -126
-28 -13 -57 -30 -64 -38 -6 -8 -32 -22 -56 -31 -56 -21 -136 -14 -238 21 l-73
25 -47 -21 c-90 -39 -226 -20 -311 45 -22 17 -46 26 -72 26 -57 0 -110 18
-128 43 -23 34 -19 94 9 122 24 24 82 45 126 45 20 0 29 9 41 39 29 67 90 88
195 68 41 -8 42 -8 53 26 11 33 57 84 96 105 11 6 43 12 72 12 45 0 56 -4 86
-32z"/>
<path d="M7736 12612 c-3 -6 8 -36 24 -67 17 -31 30 -63 30 -71 0 -8 7 -14 15
-14 20 0 19 36 -4 85 -21 45 -56 81 -65 67z"/>
<path d="M6544 12591 c-46 -28 -90 -89 -75 -104 8 -8 19 -2 42 26 17 21 44 44
61 53 27 14 34 34 12 41 -5 2 -23 -6 -40 -16z"/>
<path d="M6705 12600 c-7 -11 -7 -11 85 -40 78 -24 80 -24 80 -6 0 8 -24 23
-55 35 -61 23 -100 27 -110 11z"/>
<path d="M5233 12559 c-42 -13 -63 -25 -63 -36 0 -17 -1 -17 108 13 36 9 61
21 59 28 -6 18 -38 17 -104 -5z"/>
<path d="M5445 12570 c-9 -15 2 -27 32 -35 16 -3 45 -18 67 -31 26 -18 41 -23
49 -15 14 14 -5 36 -56 60 -60 27 -84 33 -92 21z"/>
<path d="M9515 12560 c-14 -23 13 -31 91 -28 62 2 79 6 79 18 0 12 -17 16 -82
18 -52 2 -84 -1 -88 -8z"/>
<path d="M9241 12549 c-17 -7 -21 -13 -14 -20 13 -13 168 1 168 16 0 13 -124
17 -154 4z"/>
<path d="M9804 12549 c-12 -19 10 -28 89 -35 66 -6 77 -5 77 9 0 12 -15 17
-57 22 -32 3 -68 8 -80 11 -12 2 -25 -1 -29 -7z"/>
<path d="M7416 12493 c-11 -70 -7 -133 8 -133 10 0 16 19 21 68 4 37 7 74 8
82 1 8 -5 16 -14 18 -12 2 -18 -7 -23 -35z"/>
<path d="M6970 12497 c0 -16 128 -99 141 -92 19 12 7 27 -53 65 -66 42 -88 49
-88 27z"/>
<path d="M10080 12500 c0 -14 28 -26 98 -40 99 -20 100 9 1 35 -63 17 -99 19
-99 5z"/>
<path d="M11049 12272 c-135 -125 -301 -279 -368 -342 l-123 -115 -70 -140
c-77 -153 -118 -253 -111 -272 8 -22 81 -15 232 23 l144 36 460 331 459 331
-6 50 c-3 28 -6 69 -6 91 0 37 -7 49 -77 124 l-78 82 -80 14 c-44 8 -91 14
-105 15 -19 0 -85 -55 -271 -228z m365 182 c26 -4 45 -10 44 -14 -5 -13 -793
-680 -803 -680 -5 0 -21 9 -35 21 l-25 20 81 77 c45 42 204 191 354 330 297
275 274 261 384 246z m150 -96 c31 -34 53 -65 49 -69 -25 -23 -865 -670 -867
-667 -2 2 -16 27 -32 55 -29 52 -29 53 -9 72 47 45 789 671 796 671 4 0 33
-28 63 -62z m66 -165 l0 -58 -424 -305 c-233 -167 -429 -306 -435 -308 -9 -3
-11 7 -9 31 3 34 23 51 428 366 234 181 428 330 433 330 4 1 7 -25 7 -56z
m-1010 -455 c43 -30 99 -132 107 -195 l5 -50 -68 -18 c-141 -36 -131 -36 -144
-5 -6 16 -22 38 -35 50 l-24 22 55 109 c30 60 58 109 63 109 4 0 23 -10 41
-22z m-148 -255 c30 -27 23 -50 -17 -55 -38 -4 -43 4 -23 47 13 30 16 30 40 8z"/>
<path d="M4991 12435 c-34 -25 -61 -52 -61 -60 0 -23 15 -18 72 25 29 22 56
40 61 40 10 0 9 28 -2 34 -5 3 -36 -14 -70 -39z"/>
<path d="M10350 12420 c0 -9 117 -68 144 -73 6 -1 11 5 13 14 3 11 -14 23 -59
42 -67 29 -98 34 -98 17z"/>
<path d="M5655 12383 c4 -10 18 -45 30 -78 22 -57 53 -84 47 -40 -4 28 -33
108 -45 123 -15 19 -41 15 -32 -5z"/>
<path d="M6426 12365 c-12 -33 -6 -122 9 -135 21 -17 27 3 23 80 -3 61 -19 88
-32 55z"/>
<path d="M7773 12331 c-10 -18 -30 -49 -45 -68 -31 -40 -35 -53 -14 -53 17 0
63 53 84 97 12 25 13 36 4 45 -8 8 -16 3 -29 -21z"/>
<path d="M7206 12341 c-7 -11 118 -101 139 -101 29 0 14 20 -47 65 -62 45 -82
53 -92 36z"/>
<path d="M10607 12303 c-13 -12 -7 -21 28 -43 32 -20 55 -20 55 0 0 8 -61 50
-72 50 -3 0 -8 -3 -11 -7z"/>
<path d="M4809 12248 c-45 -62 -61 -96 -49 -103 6 -3 14 -4 18 -1 13 8 82 122
82 135 0 23 -21 10 -51 -31z"/>
<path d="M7434 12245 c-12 -31 43 -145 71 -145 18 0 18 5 5 31 -10 17 -8 18
34 13 57 -8 83 0 66 21 -7 8 -16 13 -20 10 -5 -3 -31 0 -59 6 -45 9 -53 15
-66 45 -15 37 -23 42 -31 19z"/>
<path d="M11826 12082 c-8 -13 -5 -15 78 -46 79 -30 86 -31 86 -12 0 26 -151
79 -164 58z"/>
<path d="M5991 12059 c-97 -12 -199 -40 -297 -83 -64 -27 -83 -41 -99 -70 -17
-31 -25 -36 -56 -36 l-35 0 -121 -297 c-137 -337 -247 -623 -257 -670 -6 -25
-4 -34 12 -42 26 -14 193 -28 492 -41 361 -16 409 -23 489 -70 62 -36 69 -38
116 -30 112 20 194 11 510 -51 171 -33 357 -71 413 -85 57 -13 110 -24 117
-24 18 0 56 92 119 290 58 185 162 546 191 667 l18 73 -35 42 c-19 24 -38 53
-42 66 -24 74 -204 194 -353 233 -115 31 -336 30 -490 -3 l-112 -25 -29 23
c-128 101 -358 156 -551 133z m304 -53 c71 -20 189 -76 227 -108 l27 -23 -84
-275 c-125 -403 -185 -590 -190 -590 -3 0 -31 17 -62 37 -239 153 -540 183
-814 83 -44 -16 -79 -27 -79 -25 0 1 69 182 154 401 l154 399 53 27 c60 30
188 72 264 87 73 14 279 6 350 -13z m880 -111 c139 -38 315 -158 315 -215 0
-20 -218 -881 -225 -888 -2 -2 -30 14 -62 36 -165 111 -377 219 -483 247 -108
28 -241 16 -349 -31 -34 -15 -51 -19 -48 -11 16 43 257 822 257 832 0 4 119
31 195 45 78 14 330 5 400 -15z m-1621 -64 c3 -5 -64 -190 -150 -412 -86 -222
-157 -417 -158 -434 l-1 -30 90 5 c153 8 445 4 540 -9 161 -21 311 -69 365
-116 12 -11 25 -11 70 3 43 12 103 15 265 16 196 0 217 -2 310 -27 60 -16 149
-51 220 -87 l120 -59 33 32 c36 36 29 11 182 617 40 157 76 289 81 294 4 4 15
-4 25 -18 22 -34 19 -45 -91 -431 -83 -288 -169 -552 -185 -569 -4 -4 -81 8
-172 27 -89 20 -284 59 -433 87 l-270 52 -104 -11 -103 -12 -62 37 c-78 46
-102 49 -501 69 -351 16 -435 23 -455 35 -11 7 -8 24 15 87 30 83 331 839 341
854 7 12 21 12 28 0z m377 -701 c89 -22 189 -65 272 -118 l58 -37 -5 -44 c-4
-25 -8 -46 -10 -48 -2 -3 -27 7 -54 21 -28 14 -84 34 -124 45 -150 40 -215 46
-505 46 -156 0 -283 1 -283 2 0 1 4 14 10 28 7 19 28 34 72 54 178 79 380 97
569 51z m763 -85 c43 -9 121 -40 200 -79 130 -65 346 -198 346 -214 0 -31 -27
-25 -128 25 -220 109 -507 148 -766 102 -32 -6 -60 -9 -61 -7 -2 2 1 25 7 51
9 45 13 49 66 76 116 57 218 71 336 46z"/>
<path d="M5925 11950 c-9 -14 7 -18 120 -24 153 -9 253 -42 334 -110 31 -26
47 -34 55 -26 16 16 -47 74 -118 108 -33 17 -93 37 -133 46 -80 18 -248 22
-258 6z"/>
<path d="M5805 11850 c-131 -23 -140 -25 -143 -44 -4 -16 0 -18 29 -12 309 63
546 32 658 -88 27 -28 51 -34 51 -12 0 17 -68 79 -111 102 -89 46 -141 56
-289 60 -80 1 -167 -1 -195 -6z"/>
<path d="M5780 11720 c-141 -21 -188 -38 -165 -61 2 -3 44 3 92 13 101 20 303
24 385 7 73 -16 147 -52 201 -99 28 -25 48 -36 52 -30 18 29 -73 103 -171 140
-102 38 -257 49 -394 30z"/>
<path d="M5800 11594 c-100 -8 -232 -36 -237 -50 -9 -24 1 -25 78 -9 41 9 124
19 184 22 186 9 315 -23 403 -103 28 -24 55 -44 61 -44 25 0 8 31 -39 74 -50
44 -121 77 -203 95 -53 12 -188 19 -247 15z"/>
<path d="M5631 11445 c-109 -20 -121 -24 -121 -40 0 -19 8 -19 100 1 109 24
326 24 405 0 79 -24 128 -50 174 -91 21 -19 44 -35 50 -35 23 0 10 29 -30 65
-52 46 -127 81 -216 100 -84 18 -263 18 -362 0z"/>
<path d="M5630 11320 c-122 -18 -171 -32 -167 -49 2 -9 8 -15 15 -14 104 22
207 33 301 33 171 0 275 -32 367 -113 24 -21 45 -33 49 -27 16 26 -48 84 -139
126 -104 47 -277 65 -426 44z"/>
<path d="M6760 11834 c-76 -16 -110 -30 -110 -44 0 -13 23 -12 95 5 235 57
466 2 557 -130 24 -36 48 -46 48 -21 0 30 -69 101 -139 143 -100 60 -295 81
-451 47z"/>
<path d="M6755 11699 c-96 -14 -149 -33 -153 -53 -3 -15 0 -18 19 -12 13 3 58
14 99 22 93 20 283 15 350 -10 65 -24 144 -81 176 -127 26 -38 44 -45 51 -22
7 20 -107 131 -160 158 -101 49 -238 65 -382 44z"/>
<path d="M6647 11545 c-94 -19 -107 -24 -107 -42 0 -11 7 -14 28 -10 15 3 65
12 112 21 223 42 420 -11 506 -136 27 -39 54 -50 54 -22 0 24 -94 118 -148
147 -27 14 -75 33 -107 42 -73 19 -243 18 -338 0z"/>
<path d="M6649 11410 c-134 -23 -159 -31 -159 -52 0 -14 5 -18 15 -14 110 42
365 47 462 9 65 -26 123 -68 164 -119 31 -40 49 -48 56 -28 7 21 -106 132
-160 159 -98 48 -253 66 -378 45z"/>
<path d="M6554 11260 c-90 -18 -124 -31 -124 -47 0 -12 7 -14 33 -8 232 50
355 46 482 -14 58 -28 112 -73 143 -118 16 -26 42 -30 42 -7 0 24 -94 118
-148 147 -77 42 -153 57 -277 56 -60 -1 -129 -5 -151 -9z"/>
<path d="M4689 12013 c-35 -90 -47 -133 -38 -139 6 -3 15 -2 19 2 14 15 60
146 54 155 -10 17 -24 9 -35 -18z"/>
<path d="M7595 12029 c-11 -17 14 -37 71 -59 65 -24 84 -25 84 -6 0 8 -17 20
-37 27 -21 6 -55 20 -75 30 -24 12 -39 15 -43 8z"/>
<path d="M8495 12021 c-37 -11 -60 -23 -60 -32 0 -10 9 -13 29 -11 46 5 129
36 134 50 5 17 -30 14 -103 -7z"/>
<path d="M2136 11920 c-63 -67 -116 -152 -116 -185 0 -30 19 -14 50 43 18 31
64 89 101 128 64 66 74 84 44 84 -7 0 -42 -32 -79 -70z"/>
<path d="M8220 11968 c-113 -16 -102 -46 13 -34 69 8 93 18 83 35 -8 12 -5 12
-96 -1z"/>
<path d="M12086 11962 c-5 -9 118 -102 134 -102 26 0 4 33 -47 69 -56 41 -77
49 -87 33z"/>
<path d="M7867 11954 c-4 -4 -7 -13 -7 -21 0 -10 21 -13 85 -13 69 0 85 3 85
15 0 12 -14 15 -64 15 -35 0 -71 2 -78 5 -8 3 -17 2 -21 -1z"/>
<path d="M3756 11883 c-15 -82 -17 -111 -6 -118 19 -12 27 6 35 78 5 56 4 67
-8 67 -9 0 -18 -12 -21 -27z"/>
<path d="M2324 11778 c-43 -38 -94 -114 -94 -140 0 -28 25 -21 39 10 22 49 60
97 90 115 19 11 28 23 24 32 -8 22 -18 19 -59 -17z"/>
<path d="M12300 11780 c0 -17 84 -140 94 -137 21 7 15 26 -25 85 -36 55 -69
80 -69 52z"/>
<path d="M4556 11715 c-25 -36 -46 -70 -46 -75 0 -21 29 -8 52 23 46 61 63 96
51 108 -7 7 -24 -8 -57 -56z"/>
<path d="M2407 11734 c-13 -14 6 -24 44 -24 63 0 124 -19 164 -52 37 -31 54
-62 101 -188 l25 -64 -25 23 c-14 13 -41 55 -62 95 -41 79 -75 120 -117 142
-33 18 -125 36 -139 28 -13 -8 10 -34 31 -34 73 0 147 -54 185 -135 14 -29 41
-74 61 -99 19 -25 30 -46 25 -46 -11 0 -74 63 -145 145 -50 59 -140 125 -170
125 -29 0 -15 -25 28 -48 23 -12 56 -36 73 -51 34 -31 138 -161 129 -161 -3 0
-20 7 -38 16 -65 33 -133 93 -167 147 -28 46 -40 56 -62 57 -25 0 -28 -3 -28
-34 0 -47 25 -111 60 -157 62 -77 226 -129 369 -115 79 7 93 18 63 48 -12 13
-43 75 -68 140 -25 64 -55 132 -67 150 -27 39 -77 74 -126 88 -40 11 -134 14
-144 4z m39 -278 c25 -25 78 -61 117 -81 67 -33 69 -35 32 -30 -22 4 -69 21
-105 38 -71 35 -116 87 -126 147 l-6 35 21 -33 c11 -17 42 -52 67 -76z"/>
<path d="M10218 11666 c-20 -15 -24 -36 -7 -36 20 0 49 21 49 35 0 18 -19 19
-42 1z"/>
<path d="M3770 11642 c0 -24 53 -97 81 -112 16 -9 24 -9 33 0 8 8 4 16 -17 32
-16 11 -39 38 -53 59 -26 42 -44 50 -44 21z"/>
<path d="M725 11569 c-136 -15 -223 -55 -298 -139 -141 -157 -132 -458 18
-604 53 -52 141 -98 235 -123 74 -20 371 -26 389 -8 15 15 31 174 21 201 -15
40 -86 72 -195 88 -55 8 -131 24 -168 36 -76 23 -93 46 -83 109 11 67 62 114
140 125 33 5 192 -4 300 -17 16 -2 23 9 37 53 10 30 18 75 18 100 1 39 -5 53
-40 95 -51 62 -50 61 -123 74 -92 15 -174 19 -251 10z m224 -40 c81 -14 91
-22 91 -68 0 -82 6 -78 -163 -82 -143 -4 -155 -6 -210 -33 -37 -18 -66 -40
-80 -62 -18 -28 -27 -34 -47 -30 -14 2 -53 8 -88 12 -34 3 -64 10 -67 14 -2 4
7 30 21 58 29 58 93 121 154 152 90 46 253 62 389 39z m156 -159 c-9 -58 -19
-68 -34 -32 -10 23 -10 39 -1 73 11 41 13 42 27 24 10 -14 12 -33 8 -65z
m-142 -27 c61 -5 69 -9 83 -34 7 -15 14 -30 14 -32 0 -1 -26 0 -57 4 -117 15
-245 10 -290 -10 -57 -26 -103 -91 -103 -145 -1 -38 -2 -40 -15 -22 -22 29
-18 95 8 140 47 84 168 118 360 99z m-458 -119 c45 -6 45 -7 39 -40 -15 -79
48 -157 157 -193 35 -11 111 -29 169 -39 l105 -18 -3 -59 c-1 -32 -5 -61 -8
-64 -3 -3 -60 -5 -127 -5 -309 3 -477 121 -477 334 0 30 3 66 7 78 6 26 -5 25
138 6z m553 -360 c2 -15 1 -48 -3 -72 l-7 -45 -23 24 c-22 22 -23 30 -18 87 6
61 6 62 27 49 12 -8 23 -27 24 -43z m-537 -32 c84 -40 159 -54 311 -59 136 -5
148 -7 168 -28 l21 -22 -68 -6 c-80 -6 -226 7 -293 27 -60 18 -137 58 -175 91
-33 29 -31 29 36 -3z"/>
<path d="M4350 11554 c-30 -12 -63 -25 -74 -28 -24 -6 -11 -26 17 -26 35 1
132 44 132 59 0 22 -15 21 -75 -5z"/>
<path d="M10028 11542 c-64 -35 -87 -62 -52 -62 16 0 97 44 126 68 16 14 16
32 0 32 -4 0 -37 -17 -74 -38z"/>
<path d="M12435 11513 c4 -16 13 -52 19 -82 6 -30 17 -57 25 -59 12 -4 13 6 8
55 -8 76 -22 113 -43 113 -13 0 -15 -6 -9 -27z"/>
<path d="M3992 11491 c5 -23 163 -24 163 -1 0 12 -17 15 -83 16 -72 2 -83 0
-80 -15z"/>
<path d="M1806 11491 c-8 -13 12 -143 24 -155 20 -20 25 7 15 80 -10 72 -24
99 -39 75z"/>
<path d="M9770 11423 c-72 -27 -85 -36 -76 -52 10 -16 160 41 164 62 4 22 -8
20 -88 -10z"/>
<path d="M7714 11379 c-10 -18 7 -28 76 -43 85 -20 90 -20 90 -1 0 8 -16 18
-37 24 -104 25 -123 28 -129 20z"/>
<path d="M9472 11335 c-61 -15 -70 -21 -55 -36 16 -16 163 18 163 37 0 17 -35
17 -108 -1z"/>
<path d="M7995 11320 c-11 -19 5 -27 79 -39 44 -8 72 -9 79 -2 17 17 -2 28
-63 35 -34 4 -67 9 -75 12 -7 3 -16 0 -20 -6z"/>
<path d="M9215 11289 c-73 -11 -85 -15 -85 -30 0 -9 22 -10 82 -5 84 7 106 15
94 35 -8 12 -6 12 -91 0z"/>
<path d="M8264 11279 c-11 -19 9 -26 88 -33 75 -7 101 1 75 22 -18 14 -155 23
-163 11z"/>
<path d="M8558 11259 c-6 -4 -7 -12 -4 -18 10 -16 179 -15 174 2 -5 13 -152
27 -170 16z"/>
<path d="M8908 11263 c-43 -3 -58 -8 -58 -19 0 -12 15 -14 83 -12 65 2 82 6
82 18 0 17 -18 19 -107 13z"/>
<path d="M12467 11253 c-3 -10 -9 -51 -12 -90 -6 -62 -5 -73 9 -73 17 0 26 35
29 119 2 53 -15 83 -26 44z"/>
<path d="M1865 11218 c-6 -16 41 -144 56 -154 24 -15 24 13 -1 76 -30 80 -46
102 -55 78z"/>
<path d="M10197 11163 c-3 -4 -14 -39 -26 -77 -15 -47 -18 -73 -11 -80 6 -6
13 -6 18 0 9 9 42 115 45 143 2 15 -18 27 -26 14z"/>
<path d="M8614 11037 c-144 -48 -247 -126 -295 -224 -21 -41 -24 -63 -24 -154
0 -104 1 -107 41 -189 l42 -83 -234 -231 c-213 -209 -234 -234 -234 -264 0
-18 7 -46 14 -61 17 -33 76 -86 105 -96 39 -12 80 21 402 326 l146 138 62 -20
c110 -34 238 -21 346 33 63 32 149 122 184 192 115 226 19 513 -206 619 -61
28 -79 32 -173 34 -88 3 -116 -1 -176 -20z m330 -45 c89 -42 149 -100 191
-186 82 -167 57 -351 -64 -479 -120 -127 -286 -166 -447 -106 -80 30 -206 155
-252 250 -104 216 -45 397 165 496 104 50 163 63 260 59 66 -3 95 -10 147 -34z
m-470 -709 l72 -67 -43 -39 c-35 -32 -45 -37 -61 -28 -31 17 -112 111 -112
131 0 15 54 69 68 70 2 0 36 -30 76 -67z m-114 -105 l71 -71 -22 -24 c-13 -12
-29 -23 -38 -23 -21 0 -109 94 -117 125 -4 18 -1 32 11 45 10 11 20 20 21 20
2 0 36 -32 74 -72z m-55 -117 l39 -34 -84 -80 c-120 -112 -199 -177 -215 -177
-32 0 -105 84 -105 121 0 7 61 74 137 150 l136 138 27 -42 c14 -23 44 -57 65
-76z"/>
<path d="M8657 10976 c-261 -75 -359 -269 -249 -494 30 -63 118 -163 173 -198
178 -112 428 -35 525 162 26 54 29 68 29 164 0 93 -3 112 -27 162 -62 133
-177 209 -323 214 -47 2 -100 -2 -128 -10z m238 -43 c35 -11 68 -34 112 -78
53 -53 64 -71 83 -134 53 -175 -19 -344 -179 -423 -38 -19 -63 -23 -141 -23
-116 0 -166 21 -246 102 -146 149 -165 357 -43 468 111 100 276 135 414 88z"/>
<path d="M8667 10929 c-54 -13 -115 -46 -127 -70 -16 -30 10 -65 60 -80 81
-24 261 23 297 77 19 29 10 58 -23 72 -29 14 -151 14 -207 1z m181 -25 c52
-14 10 -56 -80 -80 -116 -30 -229 -10 -185 33 33 34 202 63 265 47z"/>
<path d="M11934 10980 c-33 -16 -75 -45 -93 -64 l-35 -36 -33 26 c-59 44 -113
64 -183 64 -142 0 -260 -104 -260 -229 0 -175 230 -463 451 -566 30 -13 64
-25 75 -25 49 0 288 195 369 300 108 141 135 267 82 384 -39 84 -63 113 -120
146 -44 25 -63 30 -123 30 -59 0 -81 -5 -130 -30z m242 -30 c69 -43 124 -150
124 -241 0 -147 -168 -351 -421 -513 -25 -16 -29 -15 -106 24 -58 29 -106 64
-172 126 -263 248 -309 467 -119 565 98 50 185 32 314 -66 10 -7 25 2 56 34
41 41 95 75 148 92 43 14 136 3 176 -21z"/>
<path d="M11904 10870 c-23 -11 -51 -32 -64 -45 l-22 -24 -53 30 c-116 65
-269 10 -291 -106 -21 -112 101 -298 265 -404 93 -59 108 -60 183 -10 85 57
208 183 238 244 37 76 39 152 5 220 -37 77 -81 108 -159 113 -47 2 -70 -2
-102 -18z m176 -39 c43 -31 74 -99 75 -161 0 -66 -32 -126 -109 -208 -62 -65
-177 -152 -202 -152 -67 0 -249 163 -303 271 -55 110 -39 184 50 229 60 31
120 22 186 -26 38 -29 48 -30 65 -6 57 76 172 101 238 53z"/>
<path d="M1980 10956 c0 -21 89 -138 100 -131 16 10 12 20 -32 84 -40 58 -68
77 -68 47z"/>
<path d="M3640 10914 c-158 -18 -240 -39 -340 -86 -149 -72 -242 -187 -275
-343 -18 -86 -18 -148 -1 -247 26 -144 86 -238 176 -277 27 -12 50 -26 50 -32
0 -24 -31 -80 -64 -116 -20 -22 -33 -43 -29 -47 11 -11 77 -7 138 9 69 18 127
52 170 100 l30 34 75 -16 c107 -23 399 -22 498 0 350 80 575 330 560 622 -11
211 -171 349 -461 401 -101 17 -365 17 -527 -2z m288 -34 c222 -17 364 -64
455 -149 66 -61 89 -110 95 -196 7 -116 -34 -236 -129 -376 -72 -107 -188
-187 -324 -225 -122 -33 -374 -27 -531 12 -16 4 -26 -2 -42 -30 -12 -20 -42
-49 -67 -65 -45 -29 -141 -59 -152 -48 -3 3 4 19 15 34 23 32 46 109 39 128
-3 7 -23 15 -44 18 -180 29 -259 419 -130 639 84 144 280 237 541 257 144 11
139 11 274 1z m359 -27 c29 -9 53 -20 53 -25 0 -13 -14 -10 -71 16 -64 29 -57
33 18 9z m154 -74 c63 -45 63 -46 39 -59 -19 -10 -27 -6 -70 34 -26 24 -45 47
-42 50 11 12 30 5 73 -25z m122 -138 c15 -31 27 -71 27 -93 0 -32 -5 -41 -32
-58 l-33 -20 -11 73 c-6 39 -16 85 -23 101 -9 22 -9 32 0 43 21 24 43 10 72
-46z m26 -222 c-18 -112 -29 -127 -117 -154 -22 -6 -23 -5 -11 17 7 12 20 48
29 78 14 43 26 61 56 82 22 15 42 27 45 28 3 0 2 -23 -2 -51z m-69 -185 c0
-10 -58 -89 -81 -110 -24 -22 -95 -44 -88 -28 20 45 80 116 109 128 37 16 60
20 60 10z m-180 -189 c0 -6 -103 -65 -114 -65 -12 0 36 37 71 55 29 15 43 19
43 10z"/>
<path d="M10137 10894 c-11 -11 -8 -162 2 -169 15 -9 19 5 22 89 4 74 -4 100
-24 80z"/>
<path d="M9357 10854 c-8 -8 3 -34 15 -34 6 0 33 -16 59 -35 53 -38 69 -43 69
-21 0 15 -47 54 -97 80 -36 18 -37 18 -46 10z"/>
<path d="M1245 10819 c-12 -19 8 -26 93 -33 69 -5 82 -4 82 8 0 15 -16 20
-117 31 -33 3 -54 1 -58 -6z"/>
<path d="M1535 10780 c-11 -17 0 -23 78 -42 89 -21 87 -21 87 -3 0 9 -20 20
-52 29 -92 26 -106 28 -113 16z"/>
<path d="M2165 10750 c-9 -15 7 -32 71 -76 43 -30 57 -35 67 -25 9 10 9 14 -5
22 -9 5 -39 27 -67 49 -55 44 -57 45 -66 30z"/>
<path d="M1807 10703 c-4 -3 -7 -10 -7 -14 0 -11 151 -80 161 -73 21 13 5 27
-65 60 -82 37 -80 37 -89 27z"/>
<path d="M9575 10669 c-6 -16 61 -149 75 -149 21 0 18 21 -10 78 -35 68 -57
92 -65 71z"/>
<path d="M2405 10600 c-4 -7 -3 -15 1 -20 16 -15 136 -51 152 -45 23 9 1 26
-60 46 -29 9 -60 20 -69 23 -10 4 -20 2 -24 -4z"/>
<path d="M5980 10564 c-54 -43 -74 -74 -48 -74 20 0 139 100 133 111 -11 16
-29 8 -85 -37z"/>
<path d="M10138 10605 c-2 -3 0 -38 6 -77 9 -59 15 -73 30 -76 16 -3 18 0 13
26 -3 16 -9 52 -13 81 -6 45 -19 62 -36 46z"/>
<path d="M2050 10562 c0 -11 118 -112 130 -112 27 0 14 24 -37 69 -51 46 -93
65 -93 43z"/>
<path d="M2678 10529 c-9 -6 -10 -11 -2 -19 14 -14 80 -9 77 5 -3 14 -58 24
-75 14z"/>
<path d="M576 10508 c-70 -113 -80 -138 -53 -138 15 1 99 139 91 151 -9 15
-23 10 -38 -13z"/>
<path d="M5748 10414 c-36 -18 -69 -38 -73 -44 -14 -22 25 -20 71 4 70 35 91
53 79 64 -7 7 -33 -1 -77 -24z"/>
<path d="M9653 10333 c-6 -44 -6 -82 -2 -87 18 -20 32 14 37 88 4 62 2 76 -10
76 -11 0 -17 -21 -25 -77z"/>
<path d="M2257 10373 c-7 -12 72 -138 88 -141 25 -6 17 22 -25 86 -37 59 -53
72 -63 55z"/>
<path d="M1101 10329 c-51 -26 -93 -80 -111 -143 -11 -41 -16 -46 -69 -66
-174 -65 -319 -248 -461 -580 -120 -281 -171 -463 -174 -620 -3 -198 60 -259
364 -361 289 -96 527 -111 669 -42 42 20 61 38 92 85 108 168 178 480 179 793
0 251 -40 423 -130 558 -39 58 -41 64 -31 98 19 62 13 149 -12 194 -50 89
-219 133 -316 84z m216 -40 c53 -26 84 -68 90 -123 5 -45 -13 -130 -26 -122
-5 3 -4 23 2 44 20 75 -20 138 -109 171 -102 39 -168 20 -212 -60 -30 -54 -48
-64 -37 -21 11 49 55 103 98 123 51 24 130 19 194 -12z m-41 -68 c52 -24 74
-55 74 -103 0 -21 -2 -38 -4 -38 -2 0 -28 11 -58 25 -31 14 -90 31 -132 37
-46 8 -76 17 -76 24 0 7 14 26 31 43 25 26 38 31 77 31 26 0 66 -9 88 -19z
m-71 -123 c167 -42 284 -199 335 -448 18 -91 24 -296 11 -425 -22 -224 -73
-421 -144 -559 -67 -130 -146 -163 -357 -153 -241 13 -596 128 -678 221 -75
86 -71 255 15 520 68 211 170 436 261 576 151 233 338 323 557 268z"/>
<path d="M914 9962 c-118 -86 -205 -292 -161 -379 37 -71 344 -183 503 -183
112 0 144 55 150 255 6 158 -10 206 -79 252 -70 47 -166 74 -277 80 -93 5 -96
4 -136 -25z m219 -17 c78 -16 178 -59 203 -86 16 -18 17 -22 1 -55 -23 -46
-67 -64 -160 -64 -90 0 -147 26 -194 88 -38 50 -45 104 -15 121 24 15 86 13
165 -4z m-203 -101 c0 -6 16 -29 35 -52 35 -40 36 -42 20 -71 -23 -46 -20
-116 7 -135 54 -38 115 -5 139 73 12 39 14 41 51 41 62 0 126 20 158 50 l29
27 7 -43 c8 -56 -3 -165 -22 -226 -26 -81 -61 -91 -199 -63 -100 21 -216 59
-294 98 -85 41 -99 71 -76 160 17 65 47 125 92 178 l27 32 13 -29 c7 -16 12
-34 13 -40z m156 -130 c25 -7 26 -11 3 -71 -17 -46 -74 -52 -85 -8 -8 33 22
99 42 91 9 -3 27 -9 40 -12z"/>
<path d="M584 9420 c-52 -21 -134 -149 -181 -283 -34 -98 -43 -247 -18 -300
33 -71 166 -145 385 -217 206 -68 399 -91 467 -57 98 51 190 262 207 477 8
102 -5 135 -73 182 -165 115 -675 243 -787 198z m281 -52 c222 -45 482 -149
529 -211 l20 -27 -30 -42 c-63 -90 -215 -141 -357 -120 -183 28 -401 152 -451
257 -30 63 -15 137 34 163 30 15 112 9 255 -20z m-312 -174 c8 -16 24 -37 35
-47 19 -18 19 -18 -6 -80 -46 -114 -31 -190 38 -190 36 0 72 30 108 93 14 25
26 46 28 48 1 2 39 -13 85 -31 46 -19 100 -38 119 -42 67 -13 67 -13 73 -69 6
-64 22 -91 60 -107 64 -27 122 28 121 115 l-1 53 61 27 c34 14 77 40 95 56 18
17 35 30 38 30 21 0 -40 -246 -82 -329 -71 -141 -135 -164 -348 -120 -194 39
-411 122 -514 198 -52 38 -68 87 -59 181 8 81 26 143 74 244 l37 79 11 -40 c7
-22 19 -53 27 -69z m151 -140 c19 -13 19 -15 1 -53 -22 -50 -67 -94 -92 -89
-27 5 -28 63 -3 131 l22 57 26 -16 c15 -8 36 -22 46 -30z m476 -167 c0 -55
-22 -87 -60 -87 -36 0 -50 23 -50 84 l0 46 55 0 55 0 0 -43z"/>
<path d="M871 9277 c-63 -32 -50 -85 31 -122 74 -34 132 -42 163 -21 35 23 31
52 -13 96 -53 53 -131 73 -181 47z m112 -38 c33 -17 67 -51 67 -66 0 -21 -70
-15 -127 12 -49 22 -64 41 -46 58 10 11 82 8 106 -4z"/>
<path d="M10196 10332 c-8 -14 45 -153 61 -159 26 -10 25 6 -5 84 -29 75 -44
94 -56 75z"/>
<path d="M5483 10301 c-81 -29 -93 -38 -69 -47 23 -9 156 35 156 52 0 22 -12
21 -87 -5z"/>
<path d="M442 10268 c-6 -7 -22 -39 -36 -72 -24 -55 -26 -76 -6 -76 10 0 70
126 70 146 0 17 -14 18 -28 2z"/>
<path d="M5206 10236 c-64 -10 -96 -30 -64 -41 26 -8 153 19 153 34 0 19 -9
20 -89 7z"/>
<path d="M4855 10210 c-12 -20 5 -25 83 -25 62 0 77 3 77 15 0 12 -16 16 -77
18 -48 2 -79 -1 -83 -8z"/>
<path d="M9607 10133 c-27 -44 -74 -143 -69 -147 15 -16 31 0 62 64 24 50 31
73 23 81 -6 6 -13 7 -16 2z"/>
<path d="M2386 10122 c-2 -4 3 -41 13 -82 11 -51 21 -75 31 -75 18 0 16 36 -6
113 -13 48 -26 63 -38 44z"/>
<path d="M10310 10058 c0 -17 79 -148 90 -148 23 0 17 25 -21 90 -38 63 -69
89 -69 58z"/>
<path d="M301 9953 c-18 -49 -26 -82 -20 -87 6 -6 12 -6 18 0 15 15 61 145 55
155 -12 20 -24 5 -53 -68z"/>
<path d="M9427 9842 c-56 -78 -64 -102 -36 -102 13 0 100 130 94 140 -11 18
-23 10 -58 -38z"/>
<path d="M2450 9843 c0 -32 58 -143 75 -143 21 0 20 5 -17 87 -31 69 -58 95
-58 56z"/>
<path d="M6263 9818 c-11 -17 -15 -712 -6 -918 l8 -165 30 0 30 0 8 300 c11
398 5 759 -13 779 -15 19 -46 21 -57 4z"/>
<path d="M10470 9817 c0 -7 18 -35 41 -62 58 -71 57 -71 70 -58 9 9 0 27 -37
72 -47 58 -74 76 -74 48z"/>
<path d="M9832 9782 c-30 -30 -35 -61 -29 -165 5 -87 3 -98 -34 -212 -21 -66
-42 -125 -47 -130 -4 -6 -27 -17 -52 -24 -157 -45 -273 -181 -303 -355 -9 -55
-8 -74 6 -120 61 -194 411 -366 719 -354 94 4 114 8 165 34 42 21 65 41 85 74
91 149 70 399 -46 537 l-24 29 19 84 c39 170 73 250 105 250 20 0 64 99 64
147 0 38 -4 46 -32 63 -88 54 -391 148 -504 157 -63 5 -74 3 -92 -15z m171
-32 c92 -20 288 -83 370 -119 40 -17 48 -25 45 -43 -4 -30 -40 -34 -133 -18
-86 16 -274 74 -335 105 -54 28 -84 59 -77 80 8 19 23 19 130 -5z m-119 -74
c76 -58 353 -145 472 -149 l61 -2 -14 -30 c-19 -40 -54 -55 -125 -55 -135 0
-311 59 -405 136 -40 33 -43 39 -43 85 0 27 2 49 5 49 3 0 25 -15 49 -34z m0
-151 c77 -59 220 -104 378 -120 l57 -6 -10 -27 c-6 -15 -26 -84 -44 -155 l-32
-128 30 -37 c45 -56 85 -149 98 -228 14 -89 1 -174 -38 -254 -24 -48 -36 -59
-88 -85 -57 -28 -66 -30 -175 -29 -362 3 -700 224 -660 432 20 107 60 183 130
246 45 41 125 82 178 92 22 4 37 15 46 33 20 38 86 247 86 271 0 26 4 25 44
-5z"/>
<path d="M9643 9163 c-34 -7 -136 -115 -168 -179 -60 -118 -39 -222 62 -314
143 -131 441 -207 598 -153 61 20 126 84 143 139 30 102 -8 301 -66 342 -139
99 -449 188 -569 165z m218 -57 c110 -28 246 -81 308 -120 39 -25 42 -30 26
-39 -52 -29 -290 25 -435 98 -58 30 -110 68 -110 80 0 14 129 2 211 -19z
m-213 -31 c96 -89 451 -198 541 -167 30 11 32 10 42 -16 51 -133 27 -260 -59
-319 -176 -118 -641 42 -690 239 -12 46 -3 108 23 157 20 41 94 131 106 131 5
0 22 -11 37 -25z"/>
<path d="M9595 8938 c-43 -24 -47 -67 -10 -103 49 -50 150 -20 143 43 -2 17
-15 35 -37 49 -37 25 -65 28 -96 11z m89 -47 c16 -17 16 -20 1 -35 -23 -23
-61 -20 -79 6 -11 16 -13 25 -4 35 16 19 62 16 82 -6z"/>
<path d="M9880 8900 c-27 -27 -25 -66 5 -95 31 -32 56 -31 94 1 58 48 31 114
-46 114 -20 0 -41 -8 -53 -20z m85 -24 c19 -14 19 -14 0 -36 -25 -27 -59 -23
-63 9 -6 38 29 52 63 27z"/>
<path d="M10029 8715 c-37 -20 -54 -71 -34 -102 40 -61 175 -23 175 50 0 10
-12 29 -26 42 -31 28 -75 32 -115 10z m82 -25 c44 -24 11 -70 -50 -70 -16 0
-33 5 -36 10 -10 17 4 46 28 58 29 14 35 14 58 2z"/>
<path d="M210 9689 c-21 -68 -21 -107 0 -94 9 6 50 131 50 154 0 6 -7 11 -15
11 -9 0 -22 -25 -35 -71z"/>
<path d="M9265 9585 c-33 -58 -41 -106 -16 -91 11 7 81 133 81 146 0 6 -7 10
-15 10 -7 0 -30 -29 -50 -65z"/>
<path d="M3782 9618 c-17 -17 -15 -78 2 -78 16 0 26 21 26 55 0 29 -13 38 -28
23z"/>
<path d="M2592 9608 c-8 -8 -1 -24 30 -60 44 -53 76 -75 88 -61 5 4 -18 36
-49 70 -43 46 -61 59 -69 51z"/>
<path d="M10656 9613 c-8 -9 104 -123 121 -123 26 0 12 27 -40 78 -51 51 -66
59 -81 45z"/>
<path d="M3966 9571 c-10 -16 27 -161 41 -161 18 0 17 44 -2 108 -16 51 -29
70 -39 53z"/>
<path d="M156 9482 c-15 -24 -36 -146 -26 -156 6 -6 13 -6 19 0 9 9 31 114 31
146 0 18 -15 25 -24 10z"/>
<path d="M5046 9472 c-5 -14 23 -66 97 -183 117 -186 333 -546 396 -661 24
-43 46 -80 50 -83 5 -2 17 2 27 10 18 13 18 15 -9 72 -89 182 -308 558 -434
743 -80 118 -114 145 -127 102z"/>
<path d="M7528 9428 c-162 -229 -506 -831 -494 -864 3 -9 15 -14 27 -12 15 2
35 27 66 83 87 154 217 372 355 593 77 122 138 230 136 240 -2 9 -13 18 -24
20 -16 2 -32 -12 -66 -60z"/>
<path d="M3671 9390 c-47 -45 -59 -61 -47 -66 31 -12 141 95 120 116 -6 6 -34
-14 -73 -50z"/>
<path d="M2806 9423 c-16 -16 0 -32 65 -67 52 -28 74 -35 82 -27 7 7 7 14 2
19 -22 19 -144 80 -149 75z"/>
<path d="M10875 9420 c-4 -7 -3 -15 2 -19 5 -3 34 -26 66 -49 50 -39 77 -47
77 -23 0 8 -104 89 -126 98 -6 2 -15 -1 -19 -7z"/>
<path d="M9135 9325 c-33 -72 -37 -95 -15 -95 11 0 70 125 70 146 0 7 -5 16
-10 19 -6 4 -26 -27 -45 -70z"/>
<path d="M3065 9300 c-4 -7 -3 -16 2 -21 16 -16 147 -39 157 -29 15 15 -3 26
-64 38 -30 6 -62 13 -71 17 -10 3 -20 1 -24 -5z"/>
<path d="M3962 9224 c-22 -73 -19 -113 5 -82 15 19 43 108 43 135 0 50 -27 20
-48 -53z"/>
<path d="M3405 9276 c-76 -14 -69 -31 11 -30 63 2 109 18 99 35 -8 11 -32 10
-110 -5z"/>
<path d="M11104 9259 c-8 -14 2 -23 77 -69 58 -36 79 -42 79 -20 0 8 -134 100
-145 100 -2 0 -7 -5 -11 -11z"/>
<path d="M11939 9258 c0 -2 -42 -154 -93 -338 l-93 -335 -54 -8 c-64 -8 -85
-30 -120 -118 l-23 -58 -76 -6 c-92 -8 -100 -10 -100 -30 0 -9 34 -81 75 -161
41 -80 75 -147 75 -148 0 -2 -12 -7 -27 -11 -49 -11 -163 -68 -163 -80 0 -24
14 -23 71 6 82 41 159 59 254 59 96 0 160 -17 269 -72 124 -62 208 -81 366
-81 112 1 151 5 231 26 143 38 279 111 253 137 -5 5 -31 -5 -64 -25 -30 -18
-89 -45 -130 -58 -74 -25 -180 -48 -180 -40 0 3 37 59 81 126 119 178 160 273
127 293 -6 4 -52 12 -102 18 l-90 12 -16 54 c-25 84 -46 117 -81 129 -18 6
-40 11 -49 11 -13 0 -28 26 -55 98 -132 344 -220 547 -253 585 -13 15 -31 23
-33 15z m86 -193 c53 -125 195 -489 191 -492 -1 -1 -56 1 -123 4 l-120 6 -7
90 c-9 139 -7 522 3 512 5 -6 30 -59 56 -120z m-96 -250 l2 -235 -71 0 c-56 0
-71 3 -68 14 22 95 125 456 129 456 4 0 7 -106 8 -235z m198 -275 c72 -5 149
-14 171 -19 41 -12 52 -27 78 -110 l13 -44 -117 6 c-64 4 -234 10 -377 14
-143 3 -270 9 -282 12 l-22 6 32 65 32 65 50 6 c80 9 279 9 422 -1z m-112
-190 c252 -10 501 -27 548 -36 15 -3 27 -12 27 -20 0 -32 -76 -162 -179 -308
l-56 -78 -110 5 c-127 6 -185 22 -310 83 -104 51 -213 77 -304 72 l-64 -3 -73
140 c-41 77 -74 143 -74 148 0 10 310 9 595 -3z"/>
<path d="M97 9196 c-3 -8 -9 -46 -13 -85 -5 -60 -4 -71 8 -71 12 0 19 20 27
75 6 42 11 80 11 85 0 15 -27 12 -33 -4z"/>
<path d="M9057 9123 c-2 -5 -14 -39 -27 -76 -21 -65 -21 -112 0 -91 14 14 60
156 54 166 -6 10 -21 10 -27 1z"/>
<path d="M11359 9104 c-8 -9 5 -21 54 -48 35 -20 71 -36 80 -36 37 0 13 27
-53 61 -55 29 -72 33 -81 23z"/>
<path d="M3828 8975 c-37 -52 -44 -66 -33 -75 11 -9 24 3 64 56 48 63 55 85
28 83 -7 0 -33 -29 -59 -64z"/>
<path d="M67 8923 c-4 -3 -7 -44 -7 -90 0 -63 3 -84 13 -81 12 5 30 155 20
171 -5 9 -17 9 -26 0z"/>
<path d="M2441 8883 c-93 -33 -165 -136 -147 -209 10 -37 84 -113 120 -122 41
-11 78 -73 58 -99 -60 -84 -66 -122 -29 -188 30 -54 94 -87 161 -83 l49 3 135
-142 c75 -79 139 -143 144 -143 16 0 6 47 -46 220 l-53 175 24 28 c32 40 38
70 23 135 -18 79 -61 122 -124 122 -41 0 -47 3 -62 31 -12 25 -14 37 -5 56 29
63 -15 184 -79 215 -43 22 -110 22 -169 1z m169 -42 c15 -11 26 -30 28 -49 7
-66 -123 -162 -220 -162 -63 0 -88 24 -88 82 0 36 6 47 45 84 73 70 173 89
235 45z m60 -125 c0 -29 -48 -81 -99 -108 -39 -21 -67 -28 -105 -27 l-51 0 58
20 c73 25 127 58 158 98 26 33 39 39 39 17z m20 -176 c38 -79 37 -89 -20 -128
-38 -25 -74 -37 -93 -29 -18 7 -90 144 -82 157 3 6 14 10 24 10 10 0 42 13 72
29 30 17 57 30 60 30 3 1 20 -31 39 -69z m107 -5 c12 -8 27 -31 33 -50 9 -28
8 -41 -6 -71 -36 -75 -174 -154 -270 -154 -37 0 -51 6 -75 29 -16 16 -29 38
-29 48 0 22 36 83 49 83 5 0 19 -15 30 -34 12 -18 30 -36 42 -39 40 -11 120
26 169 78 24 26 24 27 9 70 -9 24 -14 47 -11 50 10 10 37 5 59 -10z m7 -216
c-55 -56 -126 -94 -194 -104 -57 -8 -41 7 25 24 63 15 127 52 174 100 20 21
38 36 40 34 3 -2 -17 -26 -45 -54z m15 -96 c6 -21 24 -81 40 -133 17 -52 29
-96 27 -97 -1 -2 -46 44 -100 102 -93 101 -96 105 -74 114 13 6 37 19 53 30
17 12 33 21 37 21 4 0 12 -17 17 -37z"/>
<path d="M8975 8838 c-4 -14 -25 -140 -25 -152 0 -4 8 -6 17 -4 12 2 20 22 29
77 7 41 11 79 8 83 -8 12 -24 10 -29 -4z"/>
<path d="M3635 8778 c-59 -50 -70 -68 -50 -75 15 -5 137 97 132 110 -7 22 -23
15 -82 -35z"/>
<path d="M3403 8613 c-58 -35 -81 -63 -50 -63 22 0 137 73 137 87 0 21 -21 15
-87 -24z"/>
<path d="M55 8631 c-3 -6 -3 -44 1 -86 5 -54 11 -75 21 -75 11 0 13 17 11 82
-3 76 -15 107 -33 79z"/>
<path d="M4457 8599 c-9 -6 -17 -16 -17 -24 0 -19 351 -356 368 -353 8 2 20
11 26 21 10 16 -11 40 -159 183 -93 91 -177 168 -185 173 -9 6 -22 5 -33 0z"/>
<path d="M8004 8440 c-93 -88 -172 -168 -177 -176 -10 -17 8 -44 28 -44 7 0
93 75 190 167 131 125 175 172 173 188 -2 12 -12 21 -24 23 -16 2 -65 -38
-190 -158z"/>
<path d="M8946 8563 c-3 -3 -6 -44 -6 -90 0 -67 3 -83 15 -83 12 0 15 16 15
84 0 78 -7 105 -24 89z"/>
<path d="M3178 8490 c-44 -23 -55 -38 -35 -46 20 -7 97 33 97 51 0 20 -17 18
-62 -5z"/>
<path d="M1625 8480 c-6 -9 93 -110 116 -118 5 -2 9 5 9 16 0 19 -90 112 -109
112 -5 0 -13 -5 -16 -10z"/>
<path d="M75 8351 c-6 -11 1 -107 11 -143 3 -10 12 -18 20 -18 13 0 14 12 8
73 -6 71 -24 111 -39 88z"/>
<path d="M10447 8323 c-15 -14 -4 -24 63 -58 77 -39 90 -42 90 -20 0 8 -30 30
-70 50 -77 39 -74 38 -83 28z"/>
<path d="M8957 8273 c-7 -12 21 -145 33 -157 23 -23 28 12 11 83 -16 69 -32
94 -44 74z"/>
<path d="M1790 8254 c0 -8 5 -46 11 -85 9 -49 16 -69 27 -69 12 0 14 11 9 65
-6 66 -20 105 -37 105 -6 0 -10 -7 -10 -16z"/>
<path d="M10700 8185 c-9 -11 3 -22 58 -54 72 -43 92 -49 92 -28 0 6 -31 31
-69 54 -57 34 -72 39 -81 28z"/>
<path d="M115 8070 c-4 -6 1 -44 10 -85 16 -71 29 -95 42 -81 6 5 -14 136 -24
164 -6 15 -20 16 -28 2z"/>
<path d="M10930 8030 c0 -14 131 -111 141 -104 18 11 8 24 -50 68 -57 44 -91
57 -91 36z"/>
<path d="M9030 8000 c0 -18 70 -150 80 -150 5 0 11 4 14 9 8 13 -66 151 -81
151 -7 0 -13 -5 -13 -10z"/>
<path d="M2245 7990 c-11 -19 0 -22 82 -23 61 0 78 3 78 14 0 18 -149 26 -160
9z"/>
<path d="M1796 7978 c-35 -118 -40 -168 -16 -153 10 6 50 128 50 151 0 17 -29
19 -34 2z"/>
<path d="M2072 7911 c-49 -47 -66 -77 -52 -86 11 -7 120 97 120 115 0 21 -29
9 -68 -29z"/>
<path d="M11589 7928 c-84 -30 -125 -56 -110 -71 7 -7 26 -3 64 16 29 14 83
31 119 37 85 15 170 -5 247 -58 114 -79 138 -92 196 -113 84 -30 246 -37 339
-15 73 17 187 68 207 93 9 10 9 17 1 25 -7 7 -19 4 -41 -11 -70 -50 -210 -91
-310 -91 -117 0 -234 40 -329 111 -127 96 -255 122 -383 77z"/>
<path d="M11155 7859 c-8 -11 102 -118 123 -119 27 -1 9 31 -45 79 -61 54 -68
57 -78 40z"/>
<path d="M184 7762 c9 -60 23 -92 41 -92 18 0 18 11 -3 74 -22 64 -48 76 -38
18z"/>
<path d="M9176 7761 c-8 -12 92 -131 110 -131 25 0 15 20 -37 81 -52 59 -63
67 -73 50z"/>
<path d="M1675 7660 c-39 -76 -42 -90 -21 -90 16 0 90 136 81 150 -13 21 -26
8 -60 -60z"/>
<path d="M1961 7698 c-5 -13 -12 -51 -16 -85 -6 -53 -5 -63 8 -63 22 0 24 5
32 93 5 54 3 77 -4 77 -6 0 -15 -10 -20 -22z"/>
<path d="M3610 7656 c0 -28 -17 -22 262 -100 108 -31 249 -71 314 -91 102 -31
119 -34 132 -21 8 8 11 22 8 33 -7 22 -135 64 -471 153 -221 58 -245 61 -245
26z"/>
<path d="M8960 7669 c-19 -5 -111 -30 -205 -54 -237 -62 -396 -112 -412 -128
-15 -15 -9 -43 11 -50 7 -3 80 15 162 39 82 25 232 68 334 96 102 28 191 56
198 63 7 6 10 19 6 28 -7 19 -39 21 -94 6z"/>
<path d="M11365 7660 c-4 -6 12 -32 34 -59 54 -65 69 -77 82 -64 7 7 -7 30
-42 71 -53 63 -63 70 -74 52z"/>
<path d="M9380 7556 c0 -19 107 -96 132 -96 32 0 19 17 -47 64 -70 49 -85 54
-85 32z"/>
<path d="M270 7459 c-6 -11 -22 -68 -35 -127 -27 -118 -17 -104 -152 -199 -46
-33 -82 -65 -83 -75 0 -9 35 -47 77 -85 142 -125 130 -106 138 -225 4 -59 12
-116 19 -129 13 -25 121 -89 152 -89 34 0 108 54 154 113 l43 55 51 -18 c77
-26 182 -43 227 -37 53 7 79 31 79 73 0 33 -44 126 -86 182 l-25 32 49 75 c78
115 90 179 39 207 -27 15 -147 14 -205 -2 l-44 -11 -93 98 c-76 81 -108 107
-173 141 -91 47 -116 51 -132 21z m75 -31 c18 -8 24 -16 18 -27 -4 -9 -10 -69
-13 -134 l-5 -119 -114 -58 c-110 -56 -116 -58 -143 -44 -15 8 -28 18 -27 22
0 4 41 36 92 72 82 59 92 70 99 105 12 64 40 179 45 188 6 10 18 9 48 -5z
m214 -165 l96 -101 65 14 c81 17 162 18 178 2 26 -26 2 -90 -69 -185 -22 -29
-39 -54 -39 -57 0 -3 22 -40 50 -82 57 -87 76 -140 58 -162 -18 -22 -156 -10
-250 20 l-77 26 -46 -59 c-80 -102 -144 -135 -173 -89 -18 29 -40 132 -48 226
l-6 81 -69 52 c-38 28 -69 55 -69 59 0 4 50 33 112 63 l112 56 1 124 c0 68 4
130 8 137 14 21 61 -15 166 -125z m-354 -340 l60 -49 7 -79 c4 -44 12 -102 18
-129 12 -54 7 -67 -15 -45 -11 10 -19 52 -25 128 -6 62 -14 121 -20 130 -5 10
-26 31 -46 47 -20 16 -46 37 -58 47 -47 40 19 -2 79 -50z"/>
<path d="M1547 7448 c-59 -81 -73 -118 -46 -118 12 0 89 116 89 134 0 25 -17
19 -43 -16z"/>
<path d="M11540 7437 c0 -21 90 -148 100 -142 17 10 11 27 -31 92 -38 58 -69
81 -69 50z"/>
<path d="M1952 7399 c2 -24 8 -43 13 -41 15 3 12 75 -3 80 -10 3 -12 -7 -10
-39z"/>
<path d="M9620 7405 c0 -17 50 -45 80 -45 32 0 23 18 -20 40 -47 24 -60 25
-60 5z"/>
<path d="M9954 7330 c-12 -5 -25 -14 -29 -20 -13 -22 -75 -404 -81 -506 -7
-100 -6 -102 17 -117 61 -39 781 -173 889 -165 32 2 48 9 62 29 23 30 61 211
83 394 8 72 18 144 21 162 6 30 3 33 -43 56 -173 88 -823 206 -919 167z m306
-50 c313 -48 625 -133 618 -169 -5 -27 -137 -118 -263 -181 -130 -65 -197 -87
-236 -77 -93 24 -419 352 -419 423 0 23 2 24 88 24 48 0 143 -9 212 -20z
m-160 -246 l90 -90 -156 -107 c-86 -59 -159 -106 -161 -103 -6 6 14 173 38
321 30 186 24 175 64 119 19 -27 76 -90 125 -140z m770 -11 c0 -33 -41 -297
-56 -365 -9 -37 -19 -70 -24 -73 -7 -4 -190 276 -190 290 0 2 33 22 73 44 39
22 97 58 127 80 63 45 70 48 70 24z m-595 -148 c90 -68 114 -72 209 -41 44 15
82 23 86 19 12 -15 169 -269 175 -284 5 -13 -5 -14 -77 -7 -144 14 -602 97
-718 131 l-45 13 100 69 c55 37 125 86 155 107 30 21 55 38 55 38 0 0 27 -20
60 -45z"/>
<path d="M1376 7170 c-33 -63 -40 -100 -16 -85 15 9 80 124 80 141 0 34 -29 9
-64 -56z"/>
<path d="M11694 7199 c-9 -15 56 -149 73 -149 19 0 16 19 -16 86 -31 65 -45
81 -57 63z"/>
<path d="M1905 7064 c-47 -24 -81 -61 -114 -124 -28 -53 -36 -60 -82 -75 -105
-35 -165 -138 -141 -242 l10 -41 -63 -50 c-68 -55 -120 -125 -136 -184 -8 -30
-7 -51 5 -91 17 -57 73 -157 112 -198 l25 -26 -36 -59 c-66 -110 -68 -178 -8
-245 59 -65 231 -132 296 -115 12 3 39 -8 71 -30 110 -73 211 -68 300 15 28
26 58 46 67 44 43 -10 107 -335 90 -457 -6 -46 -5 -59 6 -63 13 -5 450 121
462 133 6 6 -4 23 -90 151 -37 54 -83 131 -103 171 l-37 73 52 46 c28 26 62
64 75 85 17 26 31 38 48 38 12 0 51 14 85 31 70 35 124 97 142 163 6 23 27 73
47 113 31 64 34 78 29 128 -7 72 -37 132 -97 198 -40 45 -48 60 -53 107 -21
175 -109 276 -252 288 -61 4 -67 7 -82 36 -68 133 -193 186 -324 136 l-52 -19
-31 24 c-71 54 -161 70 -221 39z m117 -24 c21 -6 58 -27 84 -46 l46 -36 52 23
c116 51 210 20 286 -93 41 -63 47 -68 80 -68 54 0 135 -27 170 -57 48 -40 82
-117 88 -198 4 -69 6 -71 59 -127 103 -109 124 -224 58 -313 -12 -16 -25 -48
-28 -69 -15 -94 -113 -187 -214 -202 -38 -6 -46 -11 -63 -44 -27 -53 -76 -99
-135 -126 -60 -28 -187 -33 -274 -9 l-54 14 -40 -45 c-22 -24 -52 -51 -68 -59
-58 -31 -154 -14 -223 39 -24 18 -48 24 -106 28 -145 9 -270 92 -270 179 0 46
37 129 77 171 l25 26 -41 45 c-54 59 -121 187 -121 233 0 69 61 154 156 220
44 31 54 42 49 59 -38 127 3 214 119 251 50 16 56 21 77 68 30 63 74 115 114
132 37 16 50 17 97 4z m523 -1478 c21 -42 70 -123 108 -180 38 -57 67 -105 66
-107 -4 -3 -372 -115 -380 -115 -2 0 -2 30 -1 66 4 74 -20 238 -49 329 -10 33
-19 62 -19 65 0 3 30 4 68 2 37 -2 85 1 107 6 22 6 45 10 50 11 6 0 28 -34 50
-77z"/>
<path d="M1965 6663 c-52 -14 -95 -66 -95 -117 0 -34 44 -83 81 -91 48 -11
115 13 149 52 35 39 36 52 13 100 -24 50 -82 72 -148 56z m105 -53 c29 -29 25
-64 -11 -94 -36 -31 -102 -36 -131 -9 -26 23 -23 69 7 98 32 33 105 35 135 5z"/>
<path d="M2485 6237 c-133 -75 -104 -257 41 -257 51 0 118 34 154 78 24 29 30
46 30 82 -1 103 -122 156 -225 97z m138 -18 c62 -32 73 -90 27 -143 -43 -49
-107 -72 -154 -56 -45 14 -70 58 -62 105 14 70 126 126 189 94z"/>
<path d="M1787 6179 c-73 -17 -117 -65 -117 -129 0 -105 107 -148 221 -90 48
25 71 59 71 105 0 83 -79 135 -175 114z m114 -58 c32 -32 37 -65 14 -97 -35
-52 -147 -72 -185 -34 -65 65 -4 160 103 160 29 0 46 -7 68 -29z"/>
<path d="M1242 6908 c-37 -84 -38 -88 -17 -88 10 0 28 26 46 68 37 82 38 85
18 89 -11 3 -24 -18 -47 -69z"/>
<path d="M12030 6877 c-217 -65 -343 -195 -386 -397 -19 -89 -14 -195 16 -318
33 -136 24 -196 -33 -222 -29 -14 -32 -19 -31 -57 0 -24 -3 -43 -8 -43 -5 0
-17 -17 -26 -37 -10 -21 -25 -50 -35 -64 -20 -31 -11 -67 27 -109 13 -14 27
-42 30 -62 13 -73 110 -125 182 -99 24 9 44 9 70 2 46 -13 81 0 96 36 7 16 20
36 30 46 10 10 18 30 18 44 0 15 11 39 26 54 16 17 27 40 28 64 5 60 52 113
171 195 157 106 318 269 370 373 34 69 39 88 43 167 7 154 -51 287 -163 372
-103 79 -272 100 -425 55z m322 -37 c109 -41 190 -139 224 -271 24 -93 14
-175 -32 -269 -50 -101 -215 -267 -363 -365 -72 -48 -115 -84 -139 -118 -29
-40 -37 -46 -48 -35 -7 7 -14 40 -16 73 -2 51 2 66 24 98 55 82 168 204 281
304 64 58 124 118 132 133 34 65 9 111 -82 155 -32 16 -67 33 -78 39 -88 46
-112 56 -135 56 -15 0 -35 9 -45 20 -48 53 -143 5 -194 -97 -42 -84 -91 -361
-91 -515 0 -49 -3 -59 -22 -69 -13 -6 -30 -20 -39 -32 -23 -28 -41 -14 -28 21
17 42 12 129 -10 216 -25 93 -28 244 -7 321 48 183 183 301 401 351 80 18 195
12 267 -16z m-314 -198 c9 -6 4 -14 -18 -30 -39 -30 -57 -89 -39 -128 8 -16
22 -30 32 -32 36 -7 87 64 87 123 0 20 5 25 26 25 14 0 41 -7 60 -16 l34 -16
-35 -40 c-54 -63 -59 -132 -10 -144 48 -12 105 50 105 114 0 37 1 37 43 16 63
-32 79 -61 61 -108 -3 -9 -54 -59 -112 -112 -123 -111 -240 -236 -289 -311
l-35 -51 -45 24 c-25 13 -52 24 -59 24 -23 0 -25 17 -14 150 13 165 34 285 65
373 26 74 43 100 90 128 34 21 35 22 53 11z m26 -80 c-8 -34 -31 -72 -44 -72
-18 0 -10 57 11 84 25 31 42 25 33 -12z m169 -100 c-10 -20 -26 -38 -35 -40
-28 -5 -22 41 9 78 22 27 28 29 35 16 6 -11 3 -29 -9 -54z m-357 -531 c46 -21
74 -54 74 -88 0 -13 -2 -23 -4 -23 -13 0 -182 94 -185 102 -2 6 3 14 10 19 22
14 61 10 105 -10z m-61 -86 c110 -54 185 -110 185 -137 0 -8 -6 -22 -13 -33
-20 -27 -46 -17 -198 79 -133 83 -178 123 -164 146 12 20 73 2 190 -55z m-80
-98 c49 -32 118 -74 152 -94 63 -35 74 -51 49 -72 -10 -8 -24 -7 -57 4 -99 35
-289 160 -289 190 0 20 30 46 43 38 7 -4 52 -33 102 -66z m-94 -68 c69 -51
194 -121 237 -132 16 -4 23 -12 20 -24 -6 -33 -53 -27 -152 20 -125 59 -213
141 -191 177 9 15 12 14 86 -41z m98 -176 c2 -2 -10 -3 -27 -3 -30 0 -92 41
-92 61 0 7 95 -39 119 -58z"/>
<path d="M3288 6753 c-56 -5 -76 -28 -53 -59 13 -18 33 -19 542 -16 343 3 532
7 541 14 17 15 15 36 -5 46 -18 9 -931 22 -1025 15z"/>
<path d="M8692 6751 c-361 -6 -375 -8 -352 -51 8 -15 59 -18 512 -23 277 -4
518 -3 537 1 45 10 62 36 39 58 -20 20 -205 24 -736 15z"/>
<path d="M1155 6698 c-2 -7 -14 -39 -26 -71 -20 -55 -19 -101 1 -81 10 10 60
138 60 154 0 15 -30 12 -35 -2z"/>
<path d="M1061 6403 c-27 -99 -30 -118 -21 -127 6 -6 13 -6 19 0 12 13 42 143
36 155 -12 18 -24 8 -34 -28z"/>
<path d="M10284 6328 c10 -87 16 -108 32 -108 17 0 18 23 3 107 -8 45 -15 63
-26 63 -13 0 -14 -10 -9 -62z"/>
<path d="M522 6323 c-11 -21 -32 -115 -32 -143 0 -11 6 -20 14 -20 14 0 22 27
41 131 7 40 -8 61 -23 32z"/>
<path d="M10571 6245 c-14 -95 -14 -95 3 -95 16 0 21 13 30 75 4 22 9 52 12
68 5 22 2 27 -14 27 -17 0 -21 -11 -31 -75z"/>
<path d="M1012 6158 c-6 -8 -14 -48 -18 -91 -6 -67 -5 -77 10 -77 9 0 16 6 16
13 0 6 5 43 10 81 10 70 3 99 -18 74z"/>
<path d="M10317 6103 c-4 -3 -7 -42 -7 -85 0 -71 2 -78 20 -78 18 0 20 7 20
69 0 88 -10 117 -33 94z"/>
<path d="M466 6028 c-3 -13 -8 -51 -11 -85 -5 -53 -4 -63 10 -63 20 0 22 8 30
98 5 61 4 72 -9 72 -9 0 -18 -10 -20 -22z"/>
<path d="M10547 6023 c-4 -3 -7 -42 -7 -85 0 -63 3 -78 15 -78 11 0 15 11 15
39 0 21 3 59 6 85 5 37 4 46 -8 46 -8 0 -18 -3 -21 -7z"/>
<path d="M8354 5992 c-15 -10 -23 -37 -15 -50 15 -24 666 -206 698 -195 15 6
23 27 14 41 -4 7 -104 39 -222 73 -202 57 -416 120 -449 133 -8 3 -20 2 -26
-2z"/>
<path d="M3938 5892 c-304 -88 -328 -97 -328 -118 0 -12 6 -24 13 -27 24 -9
659 162 693 187 26 19 9 56 -24 55 -15 -1 -174 -44 -354 -97z"/>
<path d="M974 5857 c-3 -8 -4 -45 -2 -83 2 -56 6 -69 21 -72 15 -3 17 6 17 82
0 71 -3 86 -15 86 -9 0 -18 -6 -21 -13z"/>
<path d="M10312 5809 c-16 -41 -23 -147 -11 -155 17 -10 26 13 34 88 7 75 -6
113 -23 67z"/>
<path d="M450 5684 c0 -72 2 -85 16 -82 8 2 15 6 15 11 -1 4 -1 41 -1 82 0 60
-3 75 -15 75 -12 0 -15 -16 -15 -86z"/>
<path d="M10540 5671 c0 -76 10 -105 30 -85 13 13 -3 157 -17 162 -10 3 -13
-17 -13 -77z"/>
<path d="M12340 5688 c0 -7 4 -29 9 -48 6 -19 15 -54 21 -77 6 -26 17 -43 25
-43 17 0 19 24 5 66 -5 16 -14 48 -20 72 -6 25 -17 42 -25 42 -8 0 -15 -6 -15
-12z"/>
<path d="M987 5583 c-7 -12 13 -147 24 -157 21 -22 27 11 15 83 -10 67 -26 96
-39 74z"/>
<path d="M10245 5478 c-9 -35 -20 -71 -23 -82 -4 -13 0 -17 14 -14 13 2 25 23
40 73 12 39 20 73 17 78 -13 22 -32 0 -48 -55z"/>
<path d="M477 5483 c-17 -17 8 -152 30 -160 23 -9 24 1 7 78 -17 76 -25 94
-37 82z"/>
<path d="M10567 5464 c-14 -14 30 -164 49 -164 18 0 17 10 -4 94 -17 66 -29
85 -45 70z"/>
<path d="M12415 5410 c-9 -15 14 -158 27 -166 22 -14 26 15 13 85 -15 77 -27
102 -40 81z"/>
<path d="M11077 5396 c-47 -17 -71 -36 -59 -48 6 -6 23 -4 44 5 19 8 54 18 77
22 25 4 41 12 41 21 0 18 -52 18 -103 0z"/>
<path d="M11280 5347 c0 -8 11 -24 24 -36 13 -12 32 -38 42 -57 20 -36 44 -46
44 -16 0 20 -21 54 -58 95 -27 29 -52 36 -52 14z"/>
<path d="M1037 5303 c-10 -16 39 -148 53 -148 19 0 19 7 -5 88 -18 60 -35 81
-48 60z"/>
<path d="M10882 5253 c-44 -57 -64 -100 -50 -109 7 -4 18 2 27 17 9 13 31 43
49 67 30 39 34 62 12 62 -4 0 -22 -17 -38 -37z"/>
<path d="M10131 5209 c-45 -78 -48 -89 -26 -89 17 0 99 135 90 150 -12 20 -23
10 -64 -61z"/>
<path d="M540 5203 c0 -32 58 -143 75 -143 22 0 19 12 -20 90 -34 68 -55 88
-55 53z"/>
<path d="M4732 5148 c-144 -134 -292 -283 -292 -294 0 -6 7 -17 15 -24 12 -10
19 -9 37 3 43 28 348 329 348 343 0 7 -9 18 -20 24 -18 10 -29 3 -88 -52z"/>
<path d="M7830 5195 c-7 -8 -10 -21 -7 -28 9 -23 358 -348 369 -345 7 3 16 12
22 22 9 15 -14 43 -167 192 -98 96 -184 174 -192 174 -7 0 -18 -7 -25 -15z"/>
<path d="M10650 5187 c0 -19 77 -137 89 -137 24 0 18 23 -21 84 -39 62 -68 84
-68 53z"/>
<path d="M9520 5131 c-262 -72 -551 -277 -648 -459 -42 -79 -55 -167 -43 -292
17 -159 54 -245 138 -320 103 -92 276 -148 478 -157 168 -7 255 10 385 73 76
38 109 62 170 123 120 121 170 244 170 416 0 115 -18 172 -70 219 -54 49 -121
66 -254 66 -115 0 -150 9 -170 43 -9 16 -6 23 24 45 75 58 130 119 130 145 0
33 -45 86 -87 103 -44 19 -145 17 -223 -5z m227 -37 c65 -49 57 -82 -36 -152
-87 -65 -98 -93 -53 -133 43 -38 89 -49 217 -50 61 0 125 -6 143 -12 50 -19
90 -63 107 -119 42 -143 -17 -342 -135 -452 -137 -126 -353 -177 -620 -147
-136 16 -180 27 -266 66 -169 77 -252 218 -242 410 3 67 10 90 39 145 71 134
237 275 444 376 181 88 339 115 402 68z m-676 -1023 c124 -60 201 -74 424 -75
216 -1 275 8 379 60 69 35 68 23 -1 -19 -178 -108 -390 -133 -624 -74 -152 39
-249 96 -310 181 -42 57 -36 59 20 5 26 -25 77 -60 112 -78z"/>
<path d="M9464 5025 c-89 -44 -119 -94 -83 -138 18 -24 28 -27 77 -27 99 1
182 56 182 121 0 70 -83 90 -176 44z m122 -13 c37 -25 14 -74 -50 -103 -49
-22 -95 -24 -122 -5 -15 12 -17 19 -8 32 30 50 147 99 180 76z"/>
<path d="M9168 4829 c-112 -59 -155 -167 -78 -199 84 -35 250 61 250 144 0 71
-89 99 -172 55z m124 -26 c26 -23 22 -45 -14 -80 -59 -56 -160 -82 -188 -48
-19 23 23 80 84 115 58 34 91 37 118 13z"/>
<path d="M9545 4741 c-87 -22 -135 -75 -135 -148 0 -79 67 -120 167 -102 69
13 118 49 138 102 15 40 15 47 2 80 -25 60 -96 88 -172 68z m15 -57 c-30 -14
-70 -37 -88 -51 l-34 -25 16 29 c23 46 66 69 131 72 26 1 23 -3 -25 -25z m128
-47 c5 -39 -22 -75 -71 -98 -67 -30 -157 -21 -157 16 0 43 120 116 185 112 36
-2 40 -5 43 -30z"/>
<path d="M9929 4560 c-95 -27 -154 -158 -98 -219 69 -74 168 -29 200 91 11 41
11 52 -3 81 -19 39 -59 58 -99 47z m52 -40 c13 -8 19 -21 19 -46 0 -69 -45
-134 -94 -134 -26 0 -66 38 -66 63 0 34 33 89 64 108 35 22 49 23 77 9z"/>
<path d="M9017 4521 c-40 -26 -77 -81 -84 -124 -5 -31 -1 -40 25 -67 17 -16
39 -30 50 -30 54 0 133 96 135 165 2 68 -64 97 -126 56z m87 -63 c-2 -70 -80
-140 -119 -108 -47 39 22 153 90 147 28 -2 30 -5 29 -39z"/>
<path d="M9545 4328 c-58 -61 -83 -123 -64 -160 16 -31 28 -38 66 -38 84 0
173 80 173 155 0 33 -24 81 -45 89 -47 18 -79 6 -130 -46z m111 14 c21 -13 35
-51 28 -77 -8 -33 -74 -91 -113 -100 -85 -18 -80 69 8 148 41 37 57 43 77 29z"/>
<path d="M9244 4338 c-68 -60 -82 -131 -35 -179 68 -67 163 -9 186 113 7 36
-6 75 -29 90 -6 4 -28 8 -48 8 -28 0 -47 -8 -74 -32z m100 -4 c21 -8 21 -66 0
-110 -36 -76 -116 -76 -122 -1 -3 33 2 43 36 78 39 39 55 45 86 33z"/>
<path d="M12455 5068 c9 -92 14 -108 31 -108 14 0 15 11 9 78 -8 86 -10 92
-31 92 -12 0 -14 -11 -9 -62z"/>
<path d="M11390 5095 c-6 -14 -10 -32 -10 -39 0 -6 -9 -29 -20 -51 -14 -27
-17 -42 -9 -50 20 -20 69 74 69 133 0 32 -19 36 -30 7z"/>
<path d="M10775 5028 c-10 -28 -24 -142 -19 -150 14 -22 29 4 40 72 7 41 11
78 8 82 -8 12 -24 10 -29 -4z"/>
<path d="M10830 4975 c0 -17 74 -62 117 -71 59 -12 43 15 -31 50 -85 41 -86
41 -86 21z"/>
<path d="M686 4971 c-10 -15 12 -51 29 -51 21 0 19 24 -4 44 -12 11 -21 14
-25 7z"/>
<path d="M2495 4960 c-6 -10 91 -130 106 -130 24 0 14 25 -31 79 -51 61 -63
70 -75 51z"/>
<path d="M11158 4903 c-50 -3 -68 -8 -68 -18 0 -18 57 -29 102 -20 58 12 68
16 68 31 0 8 -8 13 -17 12 -10 -1 -48 -3 -85 -5z"/>
<path d="M5535 4793 c-64 -118 -212 -366 -360 -603 -67 -107 -125 -200 -128
-207 -12 -19 4 -43 27 -43 18 0 42 29 113 138 202 307 452 755 439 787 -3 8
-14 15 -25 15 -14 0 -32 -24 -66 -87z"/>
<path d="M7034 4865 c-12 -29 299 -579 463 -820 55 -82 73 -100 93 -100 15 0
26 6 28 16 2 9 -57 113 -131 230 -137 219 -265 433 -356 597 -38 67 -58 92
-72 92 -11 0 -22 -7 -25 -15z"/>
<path d="M12475 4837 c-4 -8 -5 -45 -3 -83 2 -57 6 -69 21 -72 16 -3 18 4 15
79 -2 55 -7 84 -15 87 -7 2 -15 -3 -18 -11z"/>
<path d="M6342 4767 c-13 -15 -22 -1188 -9 -1224 12 -32 39 -38 59 -13 17 21
18 61 17 564 -1 297 -4 573 -8 611 -5 61 -9 70 -27 73 -11 2 -26 -3 -32 -11z"/>
<path d="M10763 4692 c8 -83 14 -102 33 -102 17 0 17 15 1 99 -7 38 -18 66
-26 69 -12 4 -13 -8 -8 -66z"/>
<path d="M2670 4726 c0 -24 71 -136 86 -136 22 0 17 16 -23 85 -36 61 -63 83
-63 51z"/>
<path d="M969 4661 c-166 -46 -463 -179 -599 -268 -70 -46 -140 -112 -140
-133 0 -41 42 -96 125 -163 l50 -40 -3 -141 c-4 -188 9 -290 39 -323 73 -77
386 -173 568 -173 126 0 331 78 459 174 l62 48 0 191 0 192 43 23 c23 12 45
22 50 22 9 0 9 -199 0 -304 -5 -69 -9 -79 -29 -86 -30 -12 -52 -46 -56 -90
l-3 -35 88 -3 c69 -2 89 0 93 12 9 24 -15 94 -41 113 l-24 18 12 153 c7 104 8
169 1 202 l-10 48 52 38 c29 21 59 50 69 66 15 26 15 30 -2 58 -62 105 -564
405 -698 416 -22 2 -70 -4 -106 -15z m254 -74 c200 -95 471 -271 511 -332 21
-32 14 -45 -52 -95 l-52 -39 -73 26 c-39 14 -146 46 -237 72 -160 46 -165 48
-170 76 -14 83 -205 114 -255 42 -63 -90 87 -172 206 -111 22 11 41 8 165 -27
226 -65 303 -90 309 -99 13 -20 -323 -189 -451 -226 -119 -34 -291 8 -549 136
-193 96 -305 184 -305 241 0 64 324 245 625 351 148 52 193 50 328 -15z m-142
-263 c22 -11 29 -21 27 -37 -9 -60 -156 -63 -192 -4 -28 47 95 78 165 41z
m-361 -418 c151 -60 279 -90 344 -81 63 8 191 57 324 124 l102 51 0 -100 0
-100 -56 -36 c-88 -56 -191 -102 -284 -125 -160 -41 -362 -14 -603 81 l-107
42 0 138 0 139 83 -44 c45 -24 134 -64 197 -89z m776 -231 c-11 -44 -197 -153
-336 -196 -127 -40 -283 -28 -484 37 -93 30 -184 74 -207 100 -17 20 -36 104
-23 104 4 0 47 -16 97 -36 197 -78 398 -113 532 -95 125 18 279 77 375 144
l35 25 8 -31 c5 -16 6 -40 3 -52z m174 -44 c18 -35 12 -41 -45 -41 -59 0 -63
4 -39 38 20 28 69 30 84 3z"/>
<path d="M12466 4553 c-2 -10 -7 -48 -11 -85 -5 -57 -4 -68 8 -68 16 0 22 20
33 113 5 48 4 57 -9 57 -9 0 -18 -8 -21 -17z"/>
<path d="M2805 4491 c-10 -16 46 -161 62 -161 18 0 16 21 -7 83 -25 68 -44 95
-55 78z"/>
<path d="M10824 4477 c-8 -22 52 -147 70 -147 22 0 20 8 -15 84 -33 71 -46 86
-55 63z"/>
<path d="M12427 4293 c-16 -30 -47 -157 -39 -165 5 -5 13 -4 19 4 14 17 43
115 43 145 0 22 -14 31 -23 16z"/>
<path d="M10960 4229 c0 -16 67 -97 91 -109 43 -23 37 4 -13 60 -50 57 -78 74
-78 49z"/>
<path d="M2890 4208 c0 -7 4 -29 9 -48 5 -19 12 -52 16 -72 7 -42 35 -54 35
-15 -2 57 -26 142 -43 145 -9 2 -17 -2 -17 -10z"/>
<path d="M10195 4071 c-9 -16 -11 -144 -2 -159 17 -26 27 2 27 78 0 73 -10
105 -25 81z"/>
<path d="M11916 4045 c-91 -40 -119 -60 -231 -166 l-83 -78 -60 19 c-139 43
-241 33 -256 -25 -10 -39 17 -120 67 -201 l43 -70 -51 -66 c-57 -72 -95 -145
-95 -181 0 -13 12 -34 26 -48 21 -19 38 -24 98 -27 61 -3 215 17 259 34 8 3
28 -17 51 -51 49 -75 111 -133 152 -144 30 -8 45 -5 109 24 40 19 78 43 84 53
6 11 15 50 21 88 29 190 24 179 109 238 95 67 171 134 170 149 0 7 -35 40 -77
74 -147 119 -148 121 -156 194 -9 86 -27 180 -38 202 -13 26 -53 21 -142 -18z
m122 -37 c6 -24 16 -86 23 -140 l12 -96 99 -84 c89 -75 97 -84 81 -96 -42 -31
-59 -26 -188 53 -99 61 -125 81 -119 94 4 9 8 77 10 151 l2 135 29 12 c40 17
40 17 51 -29z m-112 -44 c6 -34 3 -90 -12 -210 l-6 -51 126 -79 127 -78 -90
-58 -89 -58 -7 -52 c-10 -77 -42 -203 -64 -253 -24 -54 -50 -64 -95 -36 -34
22 -107 109 -127 155 -16 35 -25 36 -106 15 -101 -25 -231 -34 -263 -17 -53
28 -31 95 70 218 l50 59 -36 57 c-74 116 -100 194 -72 222 19 19 109 14 199
-12 l83 -24 91 88 c88 85 175 150 202 150 6 0 15 -16 19 -36z m294 -428 c0 -3
-37 -32 -83 -65 -92 -66 -89 -59 -117 -231 -17 -104 -19 -109 -49 -124 l-29
-15 23 72 c13 40 29 109 37 155 l14 83 99 64 c104 67 105 68 105 61z"/>
<path d="M11170 4046 c0 -14 105 -66 134 -66 39 0 11 28 -53 53 -79 31 -81 31
-81 13z"/>
<path d="M12296 3969 c-33 -56 -38 -79 -16 -79 13 0 82 119 75 130 -12 19 -23
10 -59 -51z"/>
<path d="M2928 3858 c-5 -83 1 -106 21 -94 7 4 11 42 11 92 0 65 -3 84 -14 84
-10 0 -15 -21 -18 -82z"/>
<path d="M10204 3786 c-11 -28 15 -156 32 -156 17 0 17 17 3 96 -12 65 -25 87
-35 60z"/>
<path d="M8998 3637 c-55 -41 -68 -60 -49 -71 13 -8 131 82 131 100 0 23 -21
15 -82 -29z"/>
<path d="M2905 3648 c-19 -60 -35 -131 -31 -135 3 -3 11 -3 19 0 15 5 50 125
41 139 -8 12 -24 10 -29 -4z"/>
<path d="M7244 3570 c-236 -17 -216 -7 -376 -187 l-103 -116 1 -216 c2 -287
20 -439 57 -462 36 -24 354 -16 517 13 61 10 69 15 133 77 38 36 86 92 108
125 38 57 39 60 39 150 1 136 -32 599 -43 614 -10 13 -156 14 -333 2z m296
-36 c0 -4 -39 -46 -87 -95 l-87 -89 -100 0 c-91 0 -326 -22 -383 -35 -13 -3
-23 -2 -23 3 0 5 42 52 93 105 l92 96 80 6 c44 3 89 7 100 9 39 6 315 6 315 0z
m28 -226 c26 -372 26 -411 7 -451 -9 -20 -43 -64 -74 -99 l-57 -62 -2 171 c-1
174 -15 343 -34 421 l-11 44 74 74 c40 41 76 74 79 74 4 0 12 -78 18 -172z
m-191 -41 c35 -141 44 -581 13 -611 -24 -22 -139 -37 -345 -43 -161 -5 -192
-3 -203 9 -23 29 -32 114 -38 363 -5 202 -3 253 7 267 23 30 297 67 464 65
l90 -2 12 -48z"/>
<path d="M7093 3251 c-85 -21 -152 -83 -198 -183 -32 -68 -34 -181 -6 -244 65
-143 226 -204 360 -138 58 29 111 92 111 131 0 12 -9 32 -20 43 -24 24 -49 20
-128 -22 -87 -46 -153 -34 -187 32 -29 55 -12 145 36 193 32 31 36 32 159 11
30 -5 40 -1 63 22 32 31 44 70 30 93 -25 42 -153 78 -220 62z m128 -43 c53
-15 74 -40 58 -66 -23 -36 -41 -41 -101 -26 -76 20 -121 5 -162 -54 -25 -35
-31 -55 -34 -111 -5 -78 10 -117 58 -151 53 -38 90 -37 176 4 83 39 99 43 107
22 17 -45 -87 -124 -175 -133 -45 -4 -61 -1 -108 24 -164 87 -186 297 -45 438
60 60 141 79 226 53z"/>
<path d="M8762 3500 c-74 -32 -93 -47 -70 -55 21 -8 153 48 153 65 0 21 -16
20 -83 -10z"/>
<path d="M10260 3509 c0 -19 62 -149 71 -149 20 0 17 23 -10 87 -16 37 -36 69
-45 71 -9 2 -16 -2 -16 -9z"/>
<path d="M2619 3300 l-62 -130 -53 50 c-61 58 -143 100 -194 100 -153 -1 -279
-222 -241 -424 23 -126 105 -242 213 -302 49 -27 61 -29 153 -29 91 0 105 3
160 30 74 37 170 126 213 197 94 156 52 289 -106 338 -35 11 -75 20 -88 20
-30 0 -30 0 1 61 l26 50 32 -47 c39 -58 86 -84 149 -84 56 0 128 26 128 47 0
41 -64 114 -119 135 -14 5 -56 10 -93 10 -38 0 -68 2 -68 4 0 3 9 23 20 45 20
38 20 59 0 59 -5 0 -37 -58 -71 -130z m193 -20 c33 -10 98 -68 98 -89 0 -12
-56 -31 -87 -31 -41 0 -94 31 -124 73 -16 22 -26 43 -23 48 7 12 91 11 136 -1z
m-416 -20 c23 -11 66 -47 97 -78 53 -56 57 -59 126 -69 141 -22 201 -72 201
-169 0 -108 -113 -255 -247 -320 -49 -25 -70 -29 -138 -29 -70 0 -87 4 -133
29 -68 38 -137 112 -170 184 -53 117 -40 291 31 384 67 88 144 111 233 68z"/>
<path d="M8482 3412 c-35 -10 -63 -22 -62 -27 2 -24 165 6 165 30 0 16 -35 15
-103 -3z"/>
<path d="M5325 3374 c-85 -57 -250 -179 -257 -189 -26 -36 -89 -342 -109 -528
-14 -129 -11 -143 34 -165 64 -31 361 -82 486 -82 l74 0 97 65 c54 35 111 80
128 99 38 44 52 103 97 423 19 136 37 261 40 276 4 25 0 30 -31 43 -39 16
-336 68 -449 79 -65 6 -73 4 -110 -21z m285 -38 c177 -28 260 -45 260 -53 0
-8 -26 -28 -118 -90 l-83 -55 -77 15 c-74 15 -308 44 -401 49 l-44 3 83 60
c126 91 132 93 180 94 25 1 115 -10 200 -23z m235 -313 c-35 -254 -61 -383
-83 -413 -19 -26 -153 -132 -160 -126 -2 2 4 31 13 65 26 103 65 349 72 459
l6 104 86 58 c47 31 87 54 89 50 2 -5 -9 -93 -23 -197z m-419 121 c67 -8 144
-20 170 -27 l49 -12 3 -75 c4 -109 -43 -408 -84 -533 -11 -34 -22 -49 -39 -53
-47 -12 -367 32 -475 65 l-55 17 1 90 c0 98 21 239 61 409 37 159 26 149 147
141 55 -4 156 -13 222 -22z"/>
<path d="M5272 3128 c-12 -16 -157 -325 -214 -457 -39 -93 -39 -94 -20 -113
24 -25 96 -35 117 -18 9 7 32 42 51 77 l36 63 58 0 58 0 21 -67 c28 -94 43
-113 89 -113 21 0 48 7 61 16 21 15 23 22 17 73 -7 68 -86 382 -118 471 -18
50 -28 66 -48 71 -42 12 -97 10 -108 -3z m113 -52 c18 -27 122 -431 127 -491
3 -39 3 -40 -34 -43 -35 -3 -37 -2 -56 50 -11 29 -23 68 -27 86 l-7 32 -86 0
-87 0 -36 -68 c-31 -60 -38 -67 -68 -70 -19 -2 -38 1 -43 6 -10 10 23 90 147
355 l78 167 38 0 c29 0 42 -6 54 -24z"/>
<path d="M5296 2950 c-32 -49 -69 -139 -62 -155 2 -7 35 -15 72 -19 87 -9 94
-1 82 86 -18 136 -44 160 -92 88z m59 -87 l7 -53 -47 0 c-43 0 -46 1 -39 23 8
28 33 78 47 95 15 18 23 1 32 -65z"/>
<path d="M8265 3374 c-11 -2 -46 -6 -77 -9 -41 -5 -58 -11 -58 -21 0 -10 12
-14 43 -13 76 1 132 13 132 28 0 16 -10 20 -40 15z"/>
<path d="M7845 3349 c-13 -20 18 -29 95 -27 59 2 75 6 75 18 0 12 -17 16 -82
18 -53 2 -84 -1 -88 -9z"/>
<path d="M9938 3310 c-186 -32 -374 -132 -459 -247 -83 -110 -113 -211 -107
-353 8 -160 69 -298 181 -411 107 -107 256 -156 449 -145 270 15 462 161 523
401 19 76 19 258 0 350 -62 290 -298 454 -587 405z m285 -59 c79 -31 174 -120
215 -203 43 -86 62 -165 69 -284 16 -288 -124 -493 -382 -559 -76 -19 -250
-19 -333 0 -203 48 -345 220 -383 465 -23 151 31 311 143 421 69 69 200 138
318 169 104 28 270 23 353 -9z"/>
<path d="M9925 3205 c-305 -57 -491 -279 -447 -534 24 -143 93 -265 189 -336
96 -70 265 -100 403 -71 242 51 370 213 370 467 0 261 -130 444 -340 478 -78
13 -86 13 -175 -4z m257 -53 c127 -56 207 -190 224 -375 22 -244 -104 -427
-328 -477 -80 -18 -238 -8 -309 19 -209 80 -323 381 -223 591 56 117 176 207
336 250 95 26 231 22 300 -8z"/>
<path d="M9858 3095 c-3 -3 12 -74 34 -156 l40 -151 -21 -15 c-55 -38 -1 -143
73 -143 20 0 45 5 55 11 14 10 43 3 151 -35 92 -32 137 -43 144 -36 16 16 0
24 -136 70 l-128 43 0 32 c0 45 -28 76 -70 80 l-35 2 -40 148 c-36 135 -50
166 -67 150z m176 -367 c12 -33 -14 -68 -50 -68 -23 0 -64 42 -64 66 0 20 31
34 70 31 28 -2 37 -7 44 -29z"/>
<path d="M1277 3303 c-10 -15 43 -163 58 -163 20 0 19 15 -8 95 -22 64 -38 87
-50 68z"/>
<path d="M623 3268 c-17 -21 -36 -149 -24 -161 17 -17 26 2 39 82 12 73 6 105
-15 79z"/>
<path d="M10395 3270 c-9 -14 8 -40 64 -94 40 -39 52 -46 56 -34 4 10 -1 25
-12 35 -10 10 -32 35 -49 54 -37 43 -51 52 -59 39z"/>
<path d="M4408 3205 c-20 -20 17 -35 88 -35 67 0 98 10 75 24 -16 10 -156 19
-163 11z"/>
<path d="M4170 3187 c-47 -12 -60 -30 -25 -35 33 -4 148 23 153 36 5 15 -66
15 -128 -1z"/>
<path d="M4690 3166 c0 -17 13 -22 74 -31 38 -6 46 -5 46 8 0 10 -17 19 -50
26 -65 14 -70 14 -70 -3z"/>
<path d="M12175 3150 c-8 -13 93 -130 111 -130 24 0 16 17 -36 79 -51 61 -63
70 -75 51z"/>
<path d="M3975 3112 c-74 -41 -120 -92 -84 -92 18 0 139 91 133 101 -7 12 -14
11 -49 -9z"/>
<path d="M10600 3066 c0 -16 137 -89 151 -80 20 12 6 25 -61 59 -77 39 -90 42
-90 21z"/>
<path d="M6485 3053 c-68 -9 -323 -54 -358 -64 -45 -12 -70 -39 -179 -189
l-83 -115 3 -84 c4 -147 63 -503 94 -569 12 -25 19 -27 78 -30 75 -4 192 10
335 40 157 32 193 49 246 115 67 86 105 144 120 186 16 45 4 141 -63 495 l-42
222 -60 -1 c-34 -1 -74 -4 -91 -6z m115 -30 c0 -5 -33 -51 -74 -104 l-74 -96
-68 -7 c-75 -8 -322 -57 -396 -80 -27 -8 -48 -12 -48 -10 0 3 35 52 77 110 90
122 82 118 326 158 222 37 257 41 257 29z m45 -195 c49 -261 65 -362 65 -424
0 -54 -4 -67 -39 -120 -22 -32 -49 -70 -60 -84 l-21 -25 0 35 c0 103 -54 415
-91 535 l-18 59 36 46 c19 25 47 62 62 82 14 21 29 37 32 38 4 0 19 -64 34
-142z m-197 -51 c43 -51 126 -568 102 -632 -7 -19 -24 -29 -77 -45 -84 -25
-277 -58 -389 -66 l-83 -7 -12 29 c-32 85 -81 391 -83 526 l-1 91 52 18 c66
22 261 65 378 83 50 8 93 14 96 15 4 1 11 -5 17 -12z"/>
<path d="M6044 2680 c-18 -6 -35 -18 -39 -28 -24 -59 -11 -372 19 -460 19 -55
51 -67 176 -67 177 0 250 45 250 151 0 60 -15 96 -53 133 l-25 23 19 32 c43
70 13 148 -73 193 -45 23 -67 27 -148 30 -52 1 -109 -2 -126 -7z m254 -52 c62
-32 88 -75 72 -122 -6 -19 -20 -46 -31 -60 -20 -26 -18 -46 5 -46 7 0 25 -14
42 -31 25 -26 29 -38 29 -84 0 -65 -26 -98 -90 -114 -53 -13 -205 -14 -238 -2
-36 14 -48 72 -54 276 -7 222 -10 217 140 210 58 -2 91 -9 125 -27z"/>
<path d="M6120 2595 c-15 -18 -7 -100 11 -121 6 -8 30 -14 54 -14 57 0 95 30
95 75 0 47 -37 75 -100 75 -30 0 -52 -6 -60 -15z m120 -40 c11 -12 12 -20 4
-32 -13 -20 -59 -37 -79 -29 -16 6 -21 67 -8 80 11 11 65 -2 83 -19z"/>
<path d="M6156 2351 c-11 -4 -23 -16 -26 -27 -10 -27 8 -97 28 -112 20 -16 89
-9 131 13 51 26 53 84 3 109 -34 17 -111 26 -136 17z m108 -41 c54 -20 16 -70
-54 -70 -31 0 -50 22 -50 59 0 18 6 21 39 21 22 0 51 -4 65 -10z"/>
<path d="M1370 3028 c0 -25 64 -148 76 -148 8 0 14 6 14 14 0 27 -62 146 -76
146 -8 0 -14 -5 -14 -12z"/>
<path d="M584 2985 c-8 -19 1 -153 10 -162 3 -4 11 -2 17 4 14 14 7 165 -8
171 -7 2 -16 -4 -19 -13z"/>
<path d="M10870 2956 c0 -16 26 -24 111 -33 51 -5 61 -4 57 8 -2 8 -29 19 -59
26 -76 16 -109 16 -109 -1z"/>
<path d="M3798 2915 c-6 -14 -23 -27 -38 -30 -35 -8 -120 -61 -120 -75 0 -17
25 -11 71 15 24 14 47 25 52 25 4 0 7 -18 7 -40 0 -63 26 -52 39 18 6 31 14
69 17 85 8 34 -12 37 -28 2z"/>
<path d="M8760 2927 c0 -16 49 -27 123 -27 41 0 48 3 45 18 -3 14 -16 17 -86
20 -65 2 -82 0 -82 -11z"/>
<path d="M8513 2923 c-30 -4 -45 -26 -25 -36 16 -8 156 19 160 31 4 12 -58 14
-135 5z"/>
<path d="M12346 2921 c-7 -11 62 -151 74 -151 21 0 17 21 -15 88 -32 68 -47
83 -59 63z"/>
<path d="M9045 2910 c-6 -10 34 -30 59 -30 20 0 27 12 15 27 -13 15 -65 18
-74 3z"/>
<path d="M11152 2904 c2 -10 31 -25 78 -40 41 -13 76 -24 78 -24 1 0 2 8 2 19
0 14 -16 23 -72 40 -87 25 -90 25 -86 5z"/>
<path d="M3905 2900 c-10 -17 -4 -20 67 -35 34 -7 69 -15 77 -17 8 -1 16 4 18
13 3 11 -8 19 -34 27 -68 20 -120 25 -128 12z"/>
<path d="M8281 2865 c-73 -27 -92 -41 -69 -50 22 -9 153 39 153 56 0 20 -16
19 -84 -6z"/>
<path d="M11417 2813 c-13 -12 -7 -19 57 -61 63 -41 86 -50 86 -34 0 12 -49
55 -91 80 -40 24 -43 25 -52 15z"/>
<path d="M4155 2790 c-3 -5 1 -23 10 -39 8 -17 15 -51 15 -76 0 -66 24 -55 28
13 4 69 -31 137 -53 102z"/>
<path d="M1500 2775 c0 -12 37 -75 82 -140 5 -6 11 -6 19 2 10 10 2 28 -34 83
-46 68 -67 86 -67 55z"/>
<path d="M8023 2716 c-47 -44 -55 -56 -41 -61 12 -5 30 5 58 32 23 21 48 42
56 46 18 10 18 37 -1 37 -8 0 -40 -24 -72 -54z"/>
<path d="M3501 2671 c-42 -61 -48 -76 -32 -85 10 -6 101 115 101 133 0 27 -31
6 -69 -48z"/>
<path d="M605 2710 c-12 -20 6 -151 22 -157 23 -9 24 0 12 78 -11 76 -21 99
-34 79z"/>
<path d="M3794 2655 c-8 -19 45 -124 69 -139 25 -16 33 2 13 32 -9 15 -26 46
-37 69 -23 49 -37 61 -45 38z"/>
<path d="M12447 2663 c-4 -8 12 -165 18 -172 21 -21 32 71 16 143 -6 29 -25
45 -34 29z"/>
<path d="M11622 2628 c-7 -7 -8 -16 -3 -22 5 -6 18 -38 29 -71 22 -64 49 -83
44 -30 -3 28 -46 135 -54 135 -2 0 -9 -5 -16 -12z"/>
<path d="M7897 2549 c-8 -13 -18 -35 -22 -49 -4 -14 -12 -28 -16 -31 -5 -3 -6
-20 -3 -38 8 -37 37 -40 42 -4 3 17 12 24 40 28 91 15 111 52 21 40 -54 -8
-54 -7 -37 30 16 37 -4 56 -25 24z"/>
<path d="M1660 2539 c0 -16 111 -129 121 -123 15 9 10 19 -42 77 -47 53 -79
72 -79 46z"/>
<path d="M4085 2525 c-16 -13 -45 -28 -65 -32 -44 -11 -49 -40 -6 -35 58 6
136 58 121 82 -9 14 -16 12 -50 -15z"/>
<path d="M8126 2492 c-9 -15 11 -25 74 -38 30 -7 61 -14 69 -16 8 -1 16 4 18
13 3 11 -8 19 -34 27 -64 19 -120 25 -127 14z"/>
<path d="M3387 2458 c-27 -65 -39 -109 -33 -125 5 -12 10 -13 17 -6 15 15 59
144 53 155 -10 16 -24 7 -37 -24z"/>
<path d="M646 2432 c-10 -16 26 -162 39 -162 21 0 22 10 6 80 -17 71 -33 101
-45 82z"/>
<path d="M7665 2386 c-33 -18 -61 -40 -63 -49 -2 -10 0 -17 5 -17 21 0 143 73
143 86 0 21 -19 17 -85 -20z"/>
<path d="M12446 2382 c-2 -4 -16 -39 -31 -77 -18 -48 -22 -72 -15 -79 8 -8 14
-6 20 4 14 22 50 119 50 135 0 17 -17 29 -24 17z"/>
<path d="M8367 2373 c-3 -4 -5 -26 -4 -48 0 -23 -8 -55 -17 -72 -10 -20 -12
-34 -6 -38 39 -24 83 124 46 154 -8 7 -16 8 -19 4z"/>
<path d="M11656 2289 c-20 -88 -20 -99 -2 -99 16 0 53 141 41 160 -14 22 -23
7 -39 -61z"/>
<path d="M1866 2342 c-10 -17 118 -117 136 -106 16 10 7 22 -47 63 -63 47 -81
56 -89 43z"/>
<path d="M3585 2294 c-157 -24 -344 -131 -479 -274 -199 -212 -239 -478 -112
-735 95 -190 246 -326 425 -379 76 -22 219 -21 313 3 262 67 513 298 573 526
17 68 19 169 4 235 -14 60 -86 212 -144 301 -94 145 -224 256 -352 298 -62 21
-173 33 -228 25z m206 -54 c151 -46 291 -180 396 -376 25 -47 42 -88 39 -92
-10 -10 -94 16 -141 44 -61 35 -131 114 -159 178 -35 80 -58 91 -187 92 -127
2 -153 13 -211 90 -21 27 -38 52 -38 56 0 12 82 26 161 27 51 1 99 -6 140 -19z
m-308 -62 c59 -100 115 -128 252 -128 53 0 105 -5 116 -10 10 -6 34 -41 53
-78 59 -117 202 -222 302 -222 48 0 57 -13 75 -113 44 -238 -164 -531 -464
-652 -231 -94 -441 -62 -620 95 -30 26 -35 35 -27 50 22 41 11 115 -26 188
-42 81 -41 94 11 165 26 35 51 54 92 72 90 40 98 60 57 151 -34 77 -33 125 5
206 17 36 31 75 31 87 0 28 -26 90 -48 114 -16 18 -15 20 8 37 28 21 139 80
150 80 5 0 19 -19 33 -42z m-183 -179 c0 -20 -14 -67 -31 -104 -27 -56 -31
-74 -26 -115 3 -27 15 -67 27 -90 31 -61 24 -80 -41 -115 -31 -16 -64 -37 -74
-45 -27 -23 -75 -113 -75 -142 0 -14 16 -59 35 -99 34 -72 43 -121 26 -148 -6
-9 -19 2 -50 45 -91 128 -134 255 -134 399 1 165 71 314 213 450 l73 69 28
-34 c20 -24 29 -45 29 -71z"/>
<path d="M3785 1783 c-111 -58 -158 -176 -100 -254 48 -65 64 -112 79 -239 18
-142 33 -173 86 -178 40 -4 68 20 110 94 16 29 48 67 71 86 115 90 162 171
163 278 2 112 -39 155 -197 205 -89 28 -168 32 -212 8z m163 -27 c95 -26 179
-71 198 -107 37 -72 -6 -228 -79 -283 -73 -55 -98 -80 -128 -129 -90 -144
-118 -130 -143 70 -15 125 -32 176 -81 242 -39 54 -29 105 32 163 62 59 107
69 201 44z"/>
<path d="M7890 2275 c0 -32 72 -125 97 -125 21 0 15 24 -11 49 -13 12 -32 38
-42 57 -19 35 -44 46 -44 19z"/>
<path d="M7426 2224 c-51 -41 -76 -84 -42 -71 28 11 126 92 126 105 0 23 -28
12 -84 -34z"/>
<path d="M2106 2193 c-3 -4 -6 -10 -6 -15 0 -11 122 -68 145 -68 29 0 15 27
-22 42 -21 9 -54 23 -74 31 -20 9 -39 13 -43 10z"/>
<path d="M710 2147 c0 -19 41 -140 51 -151 5 -6 11 -2 15 7 9 25 -34 157 -51
157 -8 0 -15 -6 -15 -13z"/>
<path d="M8217 2144 c-3 -4 -32 -12 -64 -18 -67 -14 -69 -31 -3 -31 53 1 110
22 110 41 0 14 -31 19 -43 8z"/>
<path d="M5093 2124 c-9 -25 13 -40 26 -16 10 19 6 32 -11 32 -5 0 -11 -7 -15
-16z"/>
<path d="M12313 2118 c-5 -7 -24 -38 -41 -69 -27 -47 -30 -58 -18 -68 11 -10
21 2 55 63 23 41 41 78 41 81 0 10 -28 5 -37 -7z"/>
<path d="M2362 2089 c9 -29 168 -53 168 -25 0 14 -21 20 -119 32 -43 6 -53 4
-49 -7z"/>
<path d="M7205 2030 c-44 -45 -56 -63 -48 -71 9 -9 27 3 73 46 57 55 67 74 44
82 -5 2 -36 -24 -69 -57z"/>
<path d="M11584 2079 c-10 -17 13 -36 27 -22 12 12 4 33 -11 33 -5 0 -12 -5
-16 -11z"/>
<path d="M2683 2073 c-22 -3 -33 -10 -33 -20 0 -13 12 -15 78 -11 80 5 107 12
97 29 -6 9 -78 10 -142 2z"/>
<path d="M9975 2019 c-7 -19 37 -151 53 -157 16 -5 15 23 -4 89 -18 61 -40 92
-49 68z"/>
<path d="M5010 1925 c-33 -74 -37 -95 -17 -95 8 0 26 28 40 63 33 78 35 88 19
94 -7 3 -24 -21 -42 -62z"/>
<path d="M11288 1895 c-153 -78 -463 -315 -650 -498 l-48 -46 0 -84 c0 -147
26 -198 135 -266 81 -51 171 -74 274 -69 77 4 94 8 151 40 96 54 213 152 343
288 149 155 161 179 165 333 6 172 -1 203 -53 253 -28 28 -64 48 -106 63 -89
30 -132 27 -211 -14z m227 -30 c28 -12 63 -37 79 -55 35 -43 30 -74 -23 -144
-47 -61 -208 -226 -221 -226 -5 0 -69 28 -142 61 -73 34 -162 75 -197 90 l-64
29 64 50 c108 85 256 181 317 206 65 28 106 25 187 -11z m113 -284 c-7 -118
-27 -157 -142 -278 l-92 -97 -13 98 -13 97 121 125 c67 69 121 129 121 134 0
6 5 10 11 10 8 0 10 -26 7 -89z m-504 -79 c103 -48 189 -91 189 -97 1 -16
-175 -153 -240 -186 -53 -27 -73 -32 -132 -31 -141 1 -311 76 -311 137 0 16
32 51 107 116 58 52 120 106 137 121 17 15 38 27 46 27 8 0 100 -39 204 -87z
m233 -325 c-9 -23 -164 -142 -231 -179 -57 -30 -68 -33 -151 -32 -69 0 -104 6
-147 23 -69 27 -144 76 -170 111 -16 23 -43 138 -34 148 2 2 28 -10 57 -27 70
-39 188 -71 261 -71 97 0 183 44 338 173 l55 46 14 -89 c7 -49 11 -96 8 -103z"/>
<path d="M8020 1882 c-72 -27 -87 -39 -134 -105 -53 -75 -76 -127 -76 -176 0
-33 10 -46 123 -156 68 -66 219 -205 335 -309 117 -104 212 -194 212 -199 0
-5 -20 -42 -45 -81 -80 -129 -63 -144 150 -127 274 22 462 58 529 102 78 52
78 52 50 240 -30 200 -54 336 -65 367 -10 27 -64 52 -113 52 -30 0 -47 -10
-105 -65 l-69 -66 -234 188 c-128 103 -282 225 -342 270 -119 91 -134 95 -216
65z m111 -31 l23 -18 -22 -12 c-18 -10 -28 -9 -52 6 -34 20 -38 30 -12 36 32
9 40 7 63 -12z m-22 -88 c107 -74 257 -188 495 -377 88 -69 164 -126 170 -126
6 0 21 15 33 33 38 55 142 152 152 142 28 -29 133 -540 118 -578 -7 -19 -49
-32 -197 -57 -233 -40 -450 -53 -450 -27 0 6 21 43 45 81 25 38 45 77 45 86 0
10 -95 102 -217 211 -120 107 -273 248 -342 315 -121 118 -123 121 -116 155
16 76 111 209 150 209 9 0 61 -30 114 -67z m130 10 c25 -20 48 -39 51 -41 3
-2 -3 -10 -14 -17 -16 -12 -25 -9 -77 28 -58 40 -59 41 -37 54 30 16 25 18 77
-24z m147 -115 c58 -46 61 -50 41 -67 -11 -8 -27 0 -73 35 -75 58 -71 54 -54
64 23 15 28 13 86 -32z m150 -120 c48 -38 52 -44 38 -55 -14 -10 -24 -7 -61
19 -54 39 -67 54 -58 68 11 17 24 12 81 -32z m129 -103 c33 -29 37 -37 25 -45
-21 -14 -20 -14 -65 25 -33 29 -37 36 -25 45 21 13 20 14 65 -25z m387 3 c9
-7 20 -30 23 -50 6 -33 5 -38 -11 -38 -30 0 -42 13 -58 58 -15 41 -15 42 8 42
12 0 30 -6 38 -12z m-263 -105 c2 -2 -2 -9 -9 -17 -10 -14 -16 -12 -47 11 -32
25 -34 28 -17 40 15 11 22 10 43 -10 14 -12 28 -23 30 -24z m305 -40 c20 -102
20 -103 -7 -103 -21 0 -26 7 -36 48 -7 26 -14 55 -17 65 -4 13 1 17 25 17 24
0 30 -5 35 -27z m27 -160 c0 -10 4 -40 8 -66 6 -38 5 -50 -6 -54 -20 -8 -24 0
-34 54 -5 26 -12 56 -15 66 -4 13 0 17 20 17 18 0 26 -6 27 -17z m27 -191 c3
-32 -11 -62 -29 -62 -5 0 -9 23 -9 51 0 43 3 50 18 47 11 -2 18 -14 20 -36z"/>
<path d="M7011 1831 c-28 -32 -51 -64 -51 -70 0 -25 29 -8 77 48 43 48 50 61
39 70 -11 9 -25 -1 -65 -48z"/>
<path d="M12190 1861 c-15 -29 -40 -111 -40 -133 0 -10 6 -18 13 -18 17 0 62
149 48 163 -6 6 -13 1 -21 -12z"/>
<path d="M1270 1754 c-295 -60 -478 -179 -580 -380 -47 -93 -63 -185 -57 -327
6 -148 22 -211 88 -346 88 -179 220 -295 403 -353 89 -29 297 -36 404 -14 275
56 473 231 539 477 22 82 22 276 0 374 -58 264 -226 458 -469 542 -58 20 -97
26 -188 28 -63 2 -126 1 -140 -1z m140 -45 c0 -36 -41 -199 -50 -199 -19 0
-149 185 -138 196 7 6 105 22 146 23 37 1 42 -2 42 -20z m135 -3 c52 -13 145
-52 145 -59 0 -5 -121 -216 -146 -255 l-15 -23 -59 42 c-83 58 -82 56 -61 127
11 34 22 85 26 114 4 29 9 56 12 61 6 11 42 8 98 -7z m-350 -25 c9 -30 79
-135 120 -179 l36 -40 -29 -64 c-42 -92 -100 -181 -116 -175 -7 3 -94 69 -194
147 -148 116 -180 145 -171 156 18 21 139 100 184 119 40 17 144 53 157 54 4
1 9 -8 13 -18z m644 -141 c31 -31 69 -75 85 -99 l30 -43 -35 -26 c-19 -15 -53
-44 -76 -65 l-42 -39 -76 21 c-42 12 -96 31 -119 44 l-44 22 80 137 80 138 30
-18 c17 -9 56 -42 87 -72z m-837 -206 l187 -146 -17 -26 c-21 -32 -149 -142
-194 -166 l-34 -19 -90 36 c-49 20 -111 41 -137 48 -27 6 -51 18 -54 26 -10
26 15 169 40 231 28 68 87 162 102 162 6 0 94 -66 197 -146z m436 57 c28 -22
57 -41 64 -44 15 -5 16 -1 -77 -160 l-57 -98 -46 37 c-90 72 -85 59 -44 123
20 31 50 85 66 119 16 34 32 62 36 62 3 0 29 -18 58 -39z m552 -73 c11 -24 20
-49 20 -55 0 -14 -59 -17 -125 -6 l-39 6 54 49 c30 26 59 48 63 48 4 0 17 -19
27 -42z m-365 -31 c33 -14 77 -28 98 -32 20 -4 37 -11 37 -16 0 -5 -26 -38
-58 -72 -31 -34 -79 -91 -106 -127 -27 -36 -53 -69 -57 -74 -6 -7 -139 90
-139 102 0 19 145 252 154 248 6 -2 38 -16 71 -29z m391 -72 c36 -11 45 -279
14 -399 -17 -69 -76 -196 -90 -196 -3 0 -52 41 -110 91 -58 50 -142 120 -187
157 l-82 66 39 55 c22 31 76 98 120 149 l81 92 102 -6 c56 -3 107 -7 113 -9z
m-727 -108 c34 -26 60 -51 58 -55 -13 -23 -131 -228 -134 -231 -1 -2 -37 19
-80 46 -43 28 -93 59 -110 69 -18 10 -33 21 -33 24 1 3 21 18 47 34 25 16 75
60 112 97 36 37 69 67 73 66 3 -1 34 -24 67 -50z m-527 -97 c51 -17 104 -37
117 -44 l25 -14 -30 -15 c-26 -13 -170 -67 -179 -67 -6 0 -22 67 -30 123 -3
26 -4 47 -1 47 3 0 47 -14 98 -30z m685 -27 c32 -26 60 -48 62 -50 3 -2 -16
-45 -41 -96 -25 -50 -54 -114 -63 -140 l-18 -49 -74 74 -74 74 68 117 c37 64
71 117 74 117 4 0 33 -21 66 -47z m-396 -104 c46 -27 97 -61 112 -73 l29 -23
-97 -167 c-53 -91 -101 -166 -107 -166 -23 0 -112 78 -159 140 -45 58 -107
172 -123 226 -5 18 2 23 61 42 38 12 91 33 118 46 28 14 57 25 66 25 8 1 53
-22 100 -50z m642 -98 c229 -191 222 -184 209 -208 -28 -51 -227 -172 -311
-189 -27 -6 -31 -3 -55 43 -14 28 -45 80 -70 117 -25 36 -46 73 -46 81 0 37
109 275 126 275 3 0 69 -53 147 -119z m-391 -98 l76 -78 -14 -75 c-7 -41 -13
-99 -14 -127 l0 -53 -34 0 c-75 0 -250 45 -280 71 -8 7 172 338 184 339 3 0
40 -35 82 -77z m149 -181 c53 -82 72 -123 62 -132 -4 -5 -34 -11 -65 -15 l-58
-7 0 68 c0 76 9 144 19 144 3 0 22 -26 42 -58z"/>
<path d="M10050 1743 c0 -31 36 -146 47 -150 23 -9 23 -1 5 77 -13 54 -22 76
-35 78 -9 2 -17 0 -17 -5z"/>
<path d="M4880 1655 c-42 -76 -45 -93 -16 -82 24 10 83 134 69 148 -8 8 -22
-10 -53 -66z"/>
<path d="M6826 1614 c-44 -53 -57 -84 -36 -84 15 0 111 120 105 131 -11 17
-24 9 -69 -47z"/>
<path d="M5434 1555 c-33 -34 -49 -62 -69 -127 -43 -136 -35 -311 15 -338 11
-6 142 -55 292 -110 150 -55 280 -103 288 -106 10 -3 1 -11 -26 -23 -22 -10
-57 -39 -78 -64 -48 -59 -79 -78 -130 -82 -28 -2 -42 -8 -44 -19 -3 -13 5 -16
38 -16 56 0 96 22 154 83 27 29 44 45 38 37 -5 -8 -18 -42 -27 -75 -23 -79
-50 -132 -75 -145 -21 -11 -28 -40 -9 -40 41 0 86 66 118 176 12 40 27 77 35
83 11 10 11 4 -1 -31 -9 -27 -13 -61 -9 -91 12 -109 59 -138 115 -70 17 21 31
43 31 50 0 19 4 17 43 -22 41 -41 84 -46 112 -15 23 26 16 101 -14 141 -12 16
-19 29 -16 29 3 0 120 -38 259 -85 139 -47 262 -85 274 -85 17 0 22 6 22 25 0
14 4 25 9 25 5 0 40 -14 77 -32 87 -41 132 -41 182 -1 55 43 85 107 78 165 -6
54 -34 113 -69 146 -13 13 -165 88 -338 167 -386 178 -384 177 -384 195 0 11
-11 15 -40 15 -28 1 -114 33 -285 107 -279 121 -436 178 -488 178 -29 0 -43
-8 -78 -45z m177 -14 c110 -37 204 -75 432 -173 l187 -81 -60 -54 c-83 -75
-120 -153 -127 -266 l-6 -84 -321 117 c-318 117 -321 118 -333 151 -26 74 -12
216 32 314 21 49 74 105 99 105 7 0 50 -13 97 -29z m631 -315 c-75 -82 -112
-180 -112 -303 0 -70 -1 -72 -22 -64 -67 25 -32 228 55 320 31 32 105 91 115
91 2 0 -14 -20 -36 -44z m302 -82 c116 -54 245 -112 286 -131 l74 -34 -40 -18
c-77 -35 -116 -110 -130 -247 -4 -35 -9 -64 -12 -64 -10 0 -516 172 -534 181
-38 20 -30 182 14 275 25 54 94 134 116 134 8 0 110 -43 226 -96z m480 -234
c43 -38 60 -87 53 -153 -4 -44 -10 -56 -46 -89 -49 -47 -97 -50 -117 -9 -16
32 -4 61 34 86 17 11 31 26 32 32 0 7 -36 33 -80 59 -44 25 -77 50 -74 56 15
24 72 48 116 48 38 0 54 -6 82 -30z m-162 -92 c29 -17 55 -33 57 -34 2 -2 -8
-17 -23 -34 -15 -18 -26 -44 -26 -60 l0 -29 -51 21 -51 22 5 45 c6 47 23 101
32 101 2 0 28 -14 57 -32z m-772 -38 c0 -52 -34 -141 -65 -170 l-24 -23 -11
27 c-5 15 -10 52 -10 83 0 49 4 59 34 89 19 19 43 34 55 34 18 0 21 -6 21 -40z
m106 -40 c14 -21 27 -54 27 -72 2 -28 -2 -33 -24 -36 -15 -2 -32 4 -41 15 -20
21 -35 86 -30 125 3 24 6 27 23 18 11 -6 31 -28 45 -50z"/>
<path d="M12121 1578 c-5 -14 -11 -52 -12 -84 -2 -47 0 -60 13 -62 12 -2 17
12 22 74 8 82 -5 120 -23 72z"/>
<path d="M4731 1407 c-43 -67 -50 -87 -27 -87 18 0 100 126 91 140 -12 19 -23
10 -64 -53z"/>
<path d="M10118 1465 c-3 -3 -2 -27 3 -53 5 -26 11 -62 14 -79 7 -41 35 -45
34 -5 -3 79 -31 156 -51 137z"/>
<path d="M6653 1391 c-41 -57 -54 -91 -33 -91 13 0 109 133 103 142 -11 18
-31 4 -70 -51z"/>
<path d="M12109 1308 c-6 -88 13 -180 32 -161 15 15 -2 165 -18 171 -7 2 -13
-2 -14 -10z"/>
<path d="M4558 1171 c-49 -60 -58 -81 -35 -81 16 0 107 109 107 128 0 27 -27
9 -72 -47z"/>
<path d="M10158 1183 c-3 -4 -3 -43 0 -85 3 -59 8 -78 18 -78 12 0 14 16 12
82 -2 50 -7 83 -15 85 -6 2 -13 0 -15 -4z"/>
<path d="M12151 1018 c0 -38 45 -143 60 -143 19 0 18 7 -11 93 -23 69 -51 97
-49 50z"/>
<path d="M4355 956 c-49 -44 -58 -57 -47 -67 10 -11 22 -4 64 36 58 55 68 66
68 78 0 19 -30 2 -85 -47z"/>
<path d="M9781 892 c-42 -21 -56 -48 -20 -39 13 4 50 12 82 20 32 7 59 17 60
22 4 18 -86 15 -122 -3z"/>
<path d="M10157 903 c-3 -5 -8 -32 -12 -60 -4 -29 -11 -55 -16 -59 -5 -3 -31
14 -58 36 -44 37 -71 45 -71 21 0 -4 29 -31 65 -60 85 -69 97 -60 120 87 5 34
4 42 -9 42 -8 0 -17 -3 -19 -7z"/>
<path d="M4143 783 c-57 -41 -80 -73 -53 -73 18 0 130 83 130 96 0 26 -17 21
-77 -23z"/>
<path d="M9634 744 c-17 -41 -15 -125 4 -132 8 -2 12 9 12 36 0 22 6 58 14 80
8 22 12 43 9 46 -13 13 -25 4 -39 -30z"/>
<path d="M12260 768 c0 -7 11 -26 24 -43 19 -23 27 -27 36 -18 9 8 7 18 -11
42 -23 31 -49 41 -49 19z"/>
<path d="M3898 635 c-72 -37 -88 -52 -65 -61 20 -7 159 64 155 78 -7 21 -22
18 -90 -17z"/>
<path d="M10216 653 c-8 -9 104 -123 121 -123 26 0 12 27 -40 78 -51 51 -66
59 -81 45z"/>
<path d="M10057 629 c-8 -11 -33 -34 -56 -50 -45 -33 -52 -49 -22 -49 26 0
127 93 117 108 -11 17 -23 15 -39 -9z"/>
<path d="M6357 623 c-4 -3 -7 -14 -7 -22 0 -9 -9 -22 -19 -28 -24 -15 -17 -58
8 -47 9 3 37 9 64 11 55 6 60 21 20 64 -27 28 -52 36 -66 22z"/>
<path d="M11890 581 c-171 -57 -285 -120 -321 -177 -16 -26 -20 -47 -18 -87 2
-28 1 -56 -3 -62 -3 -5 -11 -28 -17 -50 -30 -113 73 -219 196 -200 60 9 352
110 605 210 209 82 207 81 408 251 86 73 88 71 -90 98 -196 30 -210 30 -316 1
-177 -47 -396 -116 -517 -162 -65 -25 -121 -42 -124 -39 -24 24 205 125 291
129 76 4 130 53 106 97 -16 29 -95 26 -200 -9z m163 -8 c17 -16 -27 -43 -70
-43 -48 0 -270 -85 -304 -116 -11 -10 -19 -30 -19 -46 0 -21 -8 -33 -32 -48
-43 -26 -48 -25 -48 9 0 66 77 127 243 191 126 49 214 70 230 53z m359 -80 c2
-34 15 -83 32 -118 15 -33 27 -62 26 -65 -2 -8 -243 -100 -262 -100 -21 0 -72
68 -89 117 -6 20 -12 59 -13 87 l-1 51 145 42 c80 23 148 42 151 43 4 0 9 -26
11 -57z m220 38 c11 -4 26 -21 33 -38 12 -29 11 -33 -18 -61 -41 -38 -126
-102 -136 -102 -15 0 -62 119 -68 171 l-6 52 87 -7 c48 -4 97 -11 108 -15z
m96 -23 c-6 -18 -25 -20 -31 -3 -5 10 0 15 14 15 12 0 19 -5 17 -12z m-658
-98 c0 -52 25 -125 62 -178 17 -24 28 -45 26 -46 -6 -6 -123 -48 -252 -92
l-130 -44 -29 28 c-52 49 -80 108 -81 170 l-1 56 70 30 c87 36 306 115 323
115 7 1 12 -13 12 -39z m-440 -174 c0 -45 30 -114 69 -158 28 -32 29 -36 12
-41 -28 -7 -93 19 -118 48 -41 47 -42 120 -2 163 28 31 39 27 39 -12z"/>
<path d="M6555 550 c-3 -6 -16 -8 -29 -4 -14 3 -27 -1 -36 -11 -11 -13 -10
-19 7 -38 11 -12 26 -32 32 -44 14 -27 20 -28 45 -10 15 11 17 17 7 35 -6 12
-8 22 -2 22 15 0 22 32 10 46 -14 17 -25 18 -34 4z"/>
<path d="M2156 542 c-17 -16 1 -30 65 -51 67 -22 114 -22 93 -1 -14 14 -151
59 -158 52z"/>
<path d="M3633 521 c-71 -25 -97 -52 -50 -50 36 0 142 45 142 59 0 21 -14 19
-92 -9z"/>
<path d="M9696 521 c-15 -24 88 -60 139 -47 47 12 29 34 -32 39 -32 2 -68 7
-79 11 -13 5 -25 3 -28 -3z"/>
<path d="M6226 511 c-3 -4 -17 -6 -31 -4 -32 7 -44 -20 -21 -46 9 -10 16 -27
16 -40 0 -12 6 -24 14 -27 8 -3 18 -19 21 -35 8 -34 16 -41 35 -29 12 7 12 13
0 37 -16 34 -14 70 7 102 14 22 14 25 -3 38 -21 15 -31 16 -38 4z"/>
<path d="M2430 452 c0 -15 13 -21 64 -30 82 -15 96 -15 96 3 0 9 -14 17 -37
20 -21 4 -54 11 -73 16 -48 12 -50 12 -50 -9z"/>
<path d="M10436 463 c-3 -3 -6 -10 -6 -15 0 -9 118 -98 131 -98 24 0 4 32 -43
67 -68 50 -74 54 -82 46z"/>
<path d="M3340 446 c-37 -8 -55 -16 -55 -26 0 -17 25 -16 113 1 33 7 52 15 52
25 0 17 -31 17 -110 0z"/>
<path d="M2710 406 c0 -10 18 -16 63 -21 73 -8 113 -4 110 10 -3 15 -40 23
-110 24 -48 1 -63 -2 -63 -13z"/>
<path d="M3038 413 c-25 -3 -38 -9 -38 -19 0 -11 15 -14 63 -14 76 0 107 8
107 26 0 14 -42 16 -132 7z"/>
<path d="M10670 296 c0 -14 115 -66 145 -66 38 0 9 29 -54 53 -78 31 -91 33
-91 13z"/>
<path d="M11286 229 c-27 -4 -53 -12 -59 -18 -17 -17 19 -24 81 -15 42 7 58
14 60 27 4 19 -4 20 -82 6z"/>
<path d="M10944 218 c-12 -19 13 -28 90 -30 55 -2 80 1 83 9 5 14 -18 20 -104
26 -36 3 -66 1 -69 -5z"/>
</g>
</svg>
