<?xml version="1.0" standalone="no"?>
<!DOCTYPE svg PUBLIC "-//W3C//DTD SVG 20010904//EN"
 "http://www.w3.org/TR/2001/REC-SVG-20010904/DTD/svg10.dtd">
<svg version="1.0" xmlns="http://www.w3.org/2000/svg"
 width="1280.000000pt" height="877.000000pt" viewBox="0 0 1280.000000 877.000000"
 preserveAspectRatio="xMidYMid meet">
<g transform="translate(0.000000,877.000000) scale(0.100000,-0.100000)"
fill="#000000" stroke="none">
<path d="M2500 8761 c-8 -5 -31 -12 -50 -16 -66 -14 -157 -65 -213 -119 -73
-72 -105 -128 -153 -265 -3 -9 -27 9 -73 52 -87 82 -153 109 -262 110 -64 1
-85 -4 -142 -31 -39 -18 -87 -51 -115 -79 -55 -55 -118 -172 -128 -238 -3 -25
-10 -48 -15 -51 -5 -3 -31 13 -57 36 -67 59 -97 73 -179 78 -64 4 -79 1 -127
-22 -61 -30 -124 -93 -157 -158 -48 -94 -49 -102 -49 -790 0 -355 -3 -653 -6
-662 -5 -14 -44 -16 -330 -16 -367 0 -376 -1 -418 -69 -23 -36 -26 -51 -26
-131 0 -79 3 -95 25 -130 14 -21 35 -45 47 -52 17 -10 111 -14 363 -18 l340
-5 5 -660 c5 -658 5 -660 28 -716 93 -231 330 -301 486 -144 20 19 40 35 46
35 5 0 10 -21 10 -47 0 -69 26 -180 56 -241 37 -75 121 -162 191 -197 52 -27
68 -30 153 -30 82 0 103 4 152 27 32 15 81 50 109 78 27 28 54 48 59 45 4 -3
13 -29 20 -57 41 -175 170 -319 333 -370 219 -69 462 35 568 244 61 120 59 87
59 1093 0 506 4 926 9 933 5 9 25 12 62 10 l54 -3 5 -75 c8 -111 50 -169 142
-199 20 -7 39 -19 42 -27 3 -9 6 -955 6 -2102 0 -1148 3 -2097 6 -2110 l7 -23
272 1 272 2 7 90 c3 50 6 1003 6 2118 0 1610 3 2030 13 2037 6 6 24 13 39 17
37 9 98 63 114 103 8 18 14 58 14 90 0 32 4 64 8 71 7 10 472 12 2293 10
l2284 -3 7 -60 c12 -94 55 -143 161 -184 l27 -11 0 -2087 c0 -1149 3 -2111 6
-2140 l7 -52 272 0 272 0 7 46 c3 25 6 989 6 2143 l0 2097 40 12 c45 13 104
61 124 100 8 14 17 52 21 84 l7 58 37 -3 36 -3 5 -950 c4 -750 8 -958 19 -990
55 -168 191 -302 351 -345 69 -19 196 -14 264 10 156 54 280 188 322 348 9 37
20 71 24 75 4 5 30 -14 58 -42 29 -27 78 -62 109 -78 51 -25 69 -28 153 -28
83 0 102 3 151 28 68 33 156 123 194 196 31 62 55 164 55 239 0 31 4 52 11 52
6 0 33 -20 60 -44 153 -137 355 -83 456 122 l38 76 2 645 c2 356 5 656 8 669
l5 22 328 1 c226 0 338 4 362 12 21 7 45 28 62 52 25 36 27 48 28 133 0 82 -3
97 -26 133 -42 68 -51 69 -424 69 -181 0 -331 1 -332 3 -1 1 -5 310 -8 687
l-5 685 -24 59 c-33 79 -115 167 -183 196 -41 17 -65 21 -117 18 -77 -5 -129
-27 -185 -80 -22 -21 -45 -37 -51 -35 -6 3 -16 30 -22 60 -26 126 -125 258
-227 306 -147 68 -292 42 -414 -74 -33 -32 -63 -57 -67 -57 -4 1 -17 30 -30
65 -56 160 -180 278 -341 323 -92 26 -129 27 -202 8 -182 -48 -303 -155 -373
-329 l-24 -60 -5 -885 -5 -885 -35 0 -35 0 -7 93 c-9 109 -31 157 -91 199
l-40 28 -331 3 c-328 3 -331 2 -376 -20 -26 -13 -57 -41 -74 -65 -26 -38 -30
-53 -35 -140 l-6 -98 -2284 -3 c-1821 -2 -2286 0 -2293 10 -4 7 -8 40 -8 72 0
77 -28 135 -82 172 l-41 29 -321 3 c-343 3 -373 0 -426 -44 -46 -39 -63 -80
-69 -164 l-6 -75 -54 -3 c-37 -2 -57 1 -62 10 -5 7 -9 398 -9 868 0 928 1 900
-56 1019 -34 69 -151 189 -215 219 -100 48 -241 75 -279 53z"/>
<path d="M6260 4260 c-255 -15 -396 -37 -468 -72 -166 -79 -308 -279 -400
-558 -68 -207 -89 -317 -181 -985 -107 -765 -115 -845 -90 -845 12 0 12 -11
-15 -320 -9 -98 -11 -159 -5 -165 17 -17 24 9 62 213 20 108 42 214 47 235
l11 37 1174 0 c1117 0 1175 -1 1184 -18 5 -10 24 -116 41 -236 33 -231 36
-246 52 -246 7 0 8 81 3 250 -5 179 -4 250 4 250 18 0 13 124 -19 471 -17 178
-37 398 -45 489 -68 728 -93 904 -161 1107 -51 153 -141 271 -241 316 -141 63
-583 99 -953 77z"/>
</g>
</svg>
